<?xml version="1.0" encoding="UTF-8"?>
<svg version="1.1" xmlns="http://www.w3.org/2000/svg" width="2144" height="480">
<path d="M0 0 C707.52 0 1415.04 0 2144 0 C2144 158.4 2144 316.8 2144 480 C1436.48 480 728.96 480 0 480 C0 321.6 0 163.2 0 0 Z " fill="#FEFEFE" transform="translate(0,0)"/>
<path d="M0 0 C56.615625 -0.20625 113.23125 -0.4125 171.5625 -0.625 C189.45799072 -0.71604004 207.35348145 -0.80708008 225.79125977 -0.90087891 C247.59558105 -0.94604492 247.59558105 -0.94604492 257.79380798 -0.95443726 C264.93716694 -0.96377744 272.07974725 -1.00051885 279.22288513 -1.05575562 C287.45792882 -1.11934195 295.6922236 -1.14837605 303.92751473 -1.1344495 C308.14201009 -1.1284158 312.3548311 -1.1380798 316.56902039 -1.19215131 C320.37995868 -1.24075225 324.18803679 -1.24329019 327.99910545 -1.20901108 C330.03015532 -1.2027561 332.06117138 -1.24592447 334.09173489 -1.29080772 C342.76334588 -1.14843581 342.76334588 -1.14843581 346.3422094 2.17512488 C348.15911897 4.71550978 349.6276782 7.19806306 351 10 C351.5395974 11.02508929 351.5395974 11.02508929 352.09009576 12.07088745 C355.13362382 18.22772663 354.39524733 25.44757698 354.34057617 32.12695312 C354.33972878 33.54683413 354.34020724 34.96671644 354.34190369 36.38659668 C354.34276068 40.22082812 354.32518331 44.05477517 354.30418181 47.88894081 C354.28536532 51.90344405 354.28366067 55.91795458 354.28010559 59.93249512 C354.27079968 67.52547462 354.24620571 75.11832378 354.21605712 82.71124601 C354.18246771 91.35937433 354.16601571 100.00750902 354.15097082 108.65568638 C354.11965477 126.43719801 354.06692271 144.21858851 354 162 C355.27991821 161.99111755 356.55983643 161.98223511 357.87854004 161.9730835 C369.99960967 161.89164405 382.12062305 161.83186577 394.24190521 161.79275131 C400.47209669 161.77196549 406.70206552 161.74381375 412.93212891 161.69824219 C418.95572569 161.65446164 424.97910966 161.63079535 431.00285339 161.62049103 C433.28951868 161.6131571 435.57617365 161.59883743 437.86274719 161.57707977 C464.04541489 161.33807622 485.807893 166.39410166 505.19921875 185.09765625 C518.52938638 198.5273365 525.11384463 215.86703279 525.203125 234.62109375 C525.20882507 235.55744156 525.21452515 236.49378937 525.22039795 237.45851135 C525.22983094 239.44132363 525.23637516 241.42415146 525.24023438 243.40698242 C525.24986615 246.39596171 525.28087493 249.38423093 525.3125 252.37304688 C525.39017773 266.01285703 524.91438422 278.94685999 518.3125 291.25 C517.96582275 291.91765381 517.61914551 292.58530762 517.26196289 293.27319336 C514.15267099 299.07584888 510.43903977 304.13430406 506 309 C505.48308594 309.6084375 504.96617187 310.216875 504.43359375 310.84375 C492.77482788 323.70053442 473.62566024 331.97595158 456.43165207 333.17982864 C453.72496317 333.24342856 451.02522362 333.24781397 448.31787109 333.22705078 C447.28579844 333.22729185 446.25372578 333.22753292 445.19037819 333.2277813 C441.88464031 333.22630114 438.57913447 333.21112836 435.2734375 333.1953125 C433.21850696 333.19236804 431.16357492 333.19033008 429.10864258 333.18920898 C421.53073869 333.17876838 413.95286701 333.15084585 406.375 333.125 C380.944375 333.063125 380.944375 333.063125 355 333 C355.33 377.88 355.66 422.76 356 469 C355.01 469 354.02 469 353 469 C351.33279151 471.19407631 351.33279151 471.19407631 349.875 473.9375 C347.02912621 478.97087379 347.02912621 478.97087379 346 480 C344.15990804 480.09755015 342.31601772 480.12371378 340.47334194 480.12304783 C339.26571508 480.1250387 338.05808823 480.12702957 336.81386662 480.12908077 C335.4573267 480.12622815 334.10078697 480.12328276 332.74424744 480.12025452 C331.31966635 480.12069151 329.89508534 480.12156764 328.47050476 480.12284851 C324.52944482 480.12510352 320.58841177 480.12106175 316.64735524 480.11607273 C312.34210828 480.11172526 308.03686267 480.11316607 303.73161411 480.11389065 C295.36345944 480.11442367 286.99531545 480.10979314 278.62716353 480.10338932 C268.95363041 480.09620723 259.28010376 480.09539556 249.60656738 480.09460449 C224.05020989 480.08934782 198.49385479 480.0753868 172.9375 480.0625 C115.868125 480.041875 58.79875 480.02125 0 480 C0 321.6 0 163.2 0 0 Z " fill="#23D2CA" transform="translate(0,0)"/>
<path d="M0 0 C61.71 0 123.42 0 187 0 C187 55.77 187 111.54 187 169 C184.02554937 170.48722532 180.99700093 170.13355742 177.73617554 170.12025452 C176.60042648 170.12153615 176.60042648 170.12153615 175.441733 170.12284368 C172.89130744 170.12449767 170.3409469 170.11897843 167.79052734 170.11352539 C165.96759543 170.11324348 164.14466341 170.11340134 162.32173157 170.1139679 C157.36125452 170.1142557 152.40080148 170.10836169 147.44033003 170.10139394 C142.26064646 170.0951576 137.08096238 170.09455638 131.90127563 170.09336853 C122.08757237 170.09025604 112.2738802 170.08204376 102.46018183 170.07201904 C89.20262133 170.05876935 75.94505782 170.05335733 62.68749237 170.04751682 C41.79165327 170.03810382 20.89583757 170.01818435 0 170 C0 113.9 0 57.8 0 0 Z " fill="#FDFEFE" transform="translate(167,163)"/>
<path d="M0 0 C16.1305388 12.14862907 26.1361569 30.84533601 31.109375 50.12109375 C31.30402344 50.86746094 31.49867188 51.61382812 31.69921875 52.3828125 C39.71173784 84.48525826 36.5987285 121.22894783 20.109375 150.12109375 C10.92643041 165.18112288 -1.28964086 176.78945155 -17.890625 183.12109375 C-18.50873047 183.38075928 -19.12683594 183.6404248 -19.76367188 183.90795898 C-26.51302376 186.50843548 -32.96721417 186.6213306 -40.140625 186.55859375 C-41.34195068 186.55102051 -42.54327637 186.54344727 -43.78100586 186.53564453 C-61.62408992 186.20317224 -74.32488608 179.80211468 -86.890625 167.12109375 C-87.880625 165.80109375 -88.870625 164.48109375 -89.890625 163.12109375 C-90.220625 193.15109375 -90.550625 223.18109375 -90.890625 254.12109375 C-103.760625 254.12109375 -116.630625 254.12109375 -129.890625 254.12109375 C-129.890625 167.33109375 -129.890625 80.54109375 -129.890625 -8.87890625 C-117.680625 -8.87890625 -105.470625 -8.87890625 -92.890625 -8.87890625 C-92.395625 1.51609375 -92.395625 1.51609375 -91.890625 12.12109375 C-90.281875 10.28546875 -88.673125 8.44984375 -87.015625 6.55859375 C-63.54865709 -19.45463312 -28.03792595 -18.22465187 0 0 Z " fill="#020302" transform="translate(2108.890625,198.87890625)"/>
<path d="M0 0 C1.0180847 -0.01314676 1.0180847 -0.01314676 2.05673677 -0.02655911 C4.34206017 -0.05337131 6.62722929 -0.06570043 8.91267395 -0.07794189 C10.54691773 -0.09374124 12.18115452 -0.11027898 13.81538391 -0.12750244 C19.1925539 -0.17998095 24.56975532 -0.21056431 29.94709778 -0.23907471 C31.7974684 -0.24979309 33.6478388 -0.2605481 35.498209 -0.27133942 C43.19561023 -0.31460524 50.89300301 -0.35207799 58.59049511 -0.3745842 C69.62491036 -0.40705781 80.65791638 -0.47338484 91.6918003 -0.58738589 C99.44814933 -0.66479215 107.20412157 -0.70385026 114.96084672 -0.71442533 C119.59451456 -0.72173291 124.22668021 -0.74576929 128.85993004 -0.8106308 C133.22145471 -0.87081136 137.58056962 -0.88341587 141.94242096 -0.85986328 C143.54084321 -0.85942187 145.1393774 -0.87603078 146.73741341 -0.91117096 C158.6970844 -1.1597863 158.6970844 -1.1597863 162.9061985 2.33107758 C164.80498016 4.90793041 166.16136636 7.39014276 167.46662903 10.30780029 C167.99032703 11.2701314 167.99032703 11.2701314 168.5246048 12.25190353 C171.52181046 18.53088566 170.86404421 25.64231658 170.8072052 32.43475342 C170.80628495 33.87749965 170.80668879 35.32024723 170.80830097 36.76299286 C170.80897507 40.60802161 170.79165524 44.45276724 170.77046967 48.29772949 C170.75331708 51.91274862 170.75257665 55.52770074 170.7504425 59.14276123 C170.7347339 69.69781139 170.69285016 80.25280947 170.65412903 90.80780029 C170.59225403 114.40280029 170.53037903 137.99780029 170.46662903 162.30780029 C108.75662903 162.30780029 47.04662903 162.30780029 -16.53337097 162.30780029 C-16.61587097 138.56842529 -16.69837097 114.82905029 -16.78337097 90.37030029 C-16.81978699 82.8822168 -16.856203 75.3941333 -16.89372253 67.67913818 C-16.91178894 58.51568604 -16.91178894 58.51568604 -16.91514587 54.22209167 C-16.91886355 51.23153241 -16.93381719 48.24125889 -16.95567322 45.2507782 C-16.98323259 41.42894602 -16.9913132 37.60752573 -16.98566008 33.7856034 C-16.98684111 32.38753191 -16.99470067 30.98944512 -17.01023149 29.59145939 C-17.12691018 18.571436 -14.9990878 11.14427996 -8.53337097 2.30780029 C-5.72442059 -0.50115009 -3.93894148 0.03596481 0 0 Z " fill="#2E35A2" transform="translate(183.5333709716797,-0.30780029296875)"/>
<path d="M0 0 C58.41 0 116.82 0 177 0 C173.535 5.445 173.535 5.445 170 11 C166.78690763 19.08553184 166.55795879 26.43843247 166.56762695 35.07861328 C166.55859226 36.46924195 166.5482609 37.8598627 166.53674316 39.25047302 C166.50934707 42.99565071 166.49991255 46.74067658 166.49388909 50.48594141 C166.48445974 54.41108787 166.45825294 58.33612294 166.43388367 62.26119995 C166.39033976 69.6804898 166.36171866 77.09975787 166.33856028 84.51913631 C166.3114434 92.97150894 166.2675361 101.42376884 166.22227156 109.87606072 C166.12959888 127.25064896 166.05783892 144.62526159 166 162 C164.78494278 162.00364563 163.56988556 162.00729126 162.31800842 162.01104736 C150.80040582 162.04818008 139.28306608 162.10615012 127.7656641 162.18390274 C121.84612572 162.2232119 115.92673243 162.25548106 110.00708008 162.27099609 C104.28156519 162.28627242 98.55644963 162.32090996 92.83111382 162.36830902 C90.65977918 162.3830105 88.48838749 162.39103447 86.31700325 162.39188385 C70.57843818 162.40421838 54.71974041 163.02501556 40.5625 170.75 C39.90693115 171.09434082 39.2513623 171.43868164 38.57592773 171.79345703 C23.18269138 180.13185505 9.96320611 194.09146256 4.6484375 211.01953125 C3.05792123 216.61242889 1.90167913 222.25726691 1 228 C0.67 228 0.34 228 0 228 C0 152.76 0 77.52 0 0 Z " fill="#FEFEFE" transform="translate(0,0)"/>
<path d="M0 0 C61.71 0 123.42 0 187 0 C187.061875 21.058125 187.12375 42.11625 187.1875 63.8125 C187.21481201 70.44706299 187.24212402 77.08162598 187.27026367 83.91723633 C187.28381348 92.05603027 187.28381348 92.05603027 187.28633118 95.87333679 C187.29092024 98.52386121 187.30029563 101.1739478 187.31672668 103.8243866 C187.34136521 107.85281265 187.34171424 111.88092257 187.34057617 115.90942383 C187.3513705 117.07836339 187.36216482 118.24730295 187.37328625 119.45166492 C187.34592917 126.7224413 186.57760982 133.17129685 184 140 C183.63236133 141.09145938 183.63236133 141.09145938 183.25729561 142.20496845 C182.09861565 144.59123504 181.2701521 145.59772093 179 147 C173.62173732 148.06812156 168.28625693 147.9781686 162.83032227 147.9375 C161.15458789 147.95026295 159.47887374 147.96597229 157.80319214 147.98440552 C153.25539632 148.02485935 148.70865888 148.02071835 144.16074491 148.00614166 C140.36340292 147.99794222 136.56626204 148.01132219 132.7689442 148.02465248 C123.81022465 148.0557042 114.85202565 148.05056362 105.89331055 148.02246094 C96.65250326 147.99405572 87.4131989 148.02396743 78.17257077 148.08308029 C70.23687463 148.13193136 62.30164813 148.14584748 54.36581463 148.1314888 C49.62687777 148.12318782 44.88887098 148.1278304 40.15005684 148.16552734 C35.69321536 148.19935216 31.2385635 148.18945096 26.78182602 148.1460228 C25.14760445 148.13732739 23.51321813 148.14393313 21.87913704 148.16705704 C9.67015048 148.32635743 9.67015048 148.32635743 5.73606682 145.2020874 C-0.3696584 136.68694369 -0.28784439 127.20373432 -0.22705078 117.15820312 C-0.22729185 115.86865471 -0.22753292 114.57910629 -0.2277813 113.25048065 C-0.22823024 109.78259117 -0.21669312 106.31484153 -0.20256042 102.84698486 C-0.19111588 99.58516843 -0.19063122 96.32335754 -0.18920898 93.06152344 C-0.17874127 83.54099732 -0.15081876 74.02049686 -0.125 64.5 C-0.08375 43.215 -0.0425 21.93 0 0 Z " fill="#2E35A2" transform="translate(167,333)"/>
<path d="M0 0 C1.33071848 -0.00206625 1.33071848 -0.00206625 2.68832016 -0.00417423 C3.65760578 -0.00057612 4.6268914 0.00302198 5.62554932 0.00672913 C6.66681095 0.00660859 7.70807259 0.00648806 8.7808876 0.00636387 C12.15133043 0.00711024 15.52171795 0.01472597 18.89215088 0.02259827 C20.97304254 0.02406854 23.05393456 0.02508872 25.13482666 0.02565002 C32.85081537 0.03089302 40.56679617 0.04485421 48.28277588 0.05775452 C65.52527588 0.07837952 82.76777588 0.09900452 100.53277588 0.12025452 C100.53277588 56.22025452 100.53277588 112.32025452 100.53277588 170.12025452 C84.19777588 170.20275452 67.86277588 170.28525452 51.03277588 170.37025452 C43.34190674 170.42487854 43.34190674 170.42487854 35.4956665 170.48060608 C29.15679932 170.49867249 29.15679932 170.49867249 26.17425537 170.50202942 C24.12408966 170.5081074 22.0739368 170.52203944 20.02386475 170.54255676 C4.26603781 170.69215829 -10.62822966 170.0169254 -24.84222412 162.37025452 C-25.83343262 161.85265564 -25.83343262 161.85265564 -26.84466553 161.32460022 C-43.06531346 152.59177766 -56.68489228 137.66469015 -62.34222412 119.93275452 C-62.72726555 118.33096839 -63.10124162 116.72650247 -63.46722412 115.12025452 C-63.64350342 114.39225647 -63.81978271 113.66425842 -64.00140381 112.91419983 C-65.79363296 104.51291234 -65.83946546 96.16812016 -65.83782959 87.61659241 C-65.84217473 85.08651413 -65.87851974 82.55822583 -65.91644287 80.02845764 C-66.08224322 56.19744962 -59.95397283 37.19629469 -43.16253662 19.72181702 C-33.17943292 10.13149117 -21.80022193 4.48199328 -8.46722412 1.12025452 C-7.842803 0.94347451 -7.21838188 0.76669451 -6.57503891 0.58455753 C-4.31656863 0.08706858 -2.31148116 -0.00276493 0 0 Z " fill="#2D35A3" transform="translate(65.46722412109375,162.87974548339844)"/>
<path d="M0 0 C1.13856445 0.00902344 2.27712891 0.01804688 3.45019531 0.02734375 C24.46558705 0.45830593 39.728893 8.80573603 54.1875 23.4375 C55.16976563 24.40429688 55.16976563 24.40429688 56.171875 25.390625 C64.66820152 34.35463922 70.15406522 45.282167 74.0625 56.875 C74.33642578 57.68348389 74.61035156 58.49196777 74.89257812 59.32495117 C79.13546975 72.71295876 80.77496429 85.95722373 80.6875 99.9375 C80.68640228 100.66785461 80.68530457 101.39820923 80.68417358 102.1506958 C80.60880337 119.76244245 78.38801372 137.59559849 70.1875 153.4375 C69.65125 154.5203125 69.115 155.603125 68.5625 156.71875 C58.62584386 176.05974142 44.60099911 188.85534319 24.1875 196.4375 C23.06021484 196.91896484 23.06021484 196.91896484 21.91015625 197.41015625 C13.80556632 200.47252327 5.06020768 199.77067874 -3.4609375 199.50683594 C-5.46291039 199.44780767 -7.46594823 199.42690097 -9.46875 199.4140625 C-23.31123486 198.96863601 -34.92466693 192.55780168 -45.8125 184.4375 C-46.44285156 183.99148438 -47.07320312 183.54546875 -47.72265625 183.0859375 C-63.92817068 170.59658122 -71.95156724 150.5848327 -76.8125 131.4375 C-77.16441406 130.07431641 -77.16441406 130.07431641 -77.5234375 128.68359375 C-84.977794 97.623775 -79.89723285 62.9283916 -63.8125 35.4375 C-61.3735127 31.8681261 -58.71950578 28.63415309 -55.8125 25.4375 C-55.0390625 24.58285156 -54.265625 23.72820312 -53.46875 22.84765625 C-47.82794143 16.91231179 -41.93836547 12.44644014 -34.8125 8.4375 C-33.98878906 7.96441406 -33.16507813 7.49132812 -32.31640625 7.00390625 C-22.05610706 1.47155293 -11.54719237 -0.11020285 0 0 Z " fill="#020202" transform="translate(1433.8125,185.5625)"/>
<path d="M0 0 C0.33 0 0.66 0 1 0 C1.12375 0.969375 1.2475 1.93875 1.375 2.9375 C4.22038353 22.38258662 14.09341595 39.14898776 30 51 C43.85319632 60.20113164 58.24027368 65.10109398 74.95263672 65.20532227 C76.4316169 65.22017166 76.4316169 65.22017166 77.94047546 65.23532104 C81.18685537 65.26681018 84.4332499 65.2916436 87.6796875 65.31640625 C89.93556083 65.33698665 92.1914304 65.3579834 94.44729614 65.37937927 C100.37541653 65.43448777 106.30357108 65.48394645 112.23175049 65.53222656 C118.28473946 65.58252363 124.33767903 65.63816682 130.390625 65.69335938 C142.26037443 65.80080366 154.13016682 65.90227899 166 66 C166.00146656 66.64861622 166.00293312 67.29723244 166.00444412 67.96550369 C166.0415945 83.79236006 166.10071749 99.61896184 166.18390274 115.44563675 C166.22360896 123.09950331 166.25604396 130.7532683 166.27099609 138.40722656 C166.28405651 145.08317451 166.31113212 151.7588982 166.35461307 158.4347198 C166.37713003 161.96526607 166.39291662 165.49553676 166.39188385 169.02616119 C166.39099107 172.98023458 166.42140736 176.93375063 166.45410156 180.88769531 C166.4490712 182.04144653 166.44404083 183.19519775 166.43885803 184.38391113 C166.57894021 195.3939748 169.54960384 203.46180672 175 213 C117.25 213 59.5 213 0 213 C0 142.71 0 72.42 0 0 Z " fill="#FEFEFE" transform="translate(0,267)"/>
<path d="M0 0 C1.04728271 0.00902344 2.09456543 0.01804688 3.17358398 0.02734375 C25.01518338 0.51058725 41.30826469 9.03131636 56.3125 24.4375 C57.34310547 25.45457031 57.34310547 25.45457031 58.39453125 26.4921875 C78.38799316 47.52368468 82.20764403 79.55325814 81.66015625 107.1484375 C80.75864386 131.72515156 73.87513035 156.65305338 57.3125 175.4375 C56.59578125 176.25992188 55.8790625 177.08234375 55.140625 177.9296875 C43.7036451 190.22630968 26.57475093 199.0502177 9.66015625 199.80859375 C-12.19330035 200.23328613 -29.9471821 196.19258789 -46.6875 181.4375 C-47.450625 180.76976562 -48.21375 180.10203125 -49 179.4140625 C-64.01761603 165.38719197 -71.14051021 146.02373621 -75.6875 126.4375 C-75.87658936 125.62998291 -76.06567871 124.82246582 -76.26049805 123.99047852 C-77.94195882 115.9426852 -78.04457291 107.93544512 -78 99.75 C-77.99784485 99.03962585 -77.9956897 98.32925171 -77.99346924 97.59735107 C-77.9430974 87.26355441 -77.59315401 77.44343636 -74.6875 67.4375 C-74.48350586 66.72529297 -74.27951172 66.01308594 -74.06933594 65.27929688 C-69.73297644 50.44604385 -63.97250137 37.17715296 -53.6875 25.4375 C-53.12289063 24.72980469 -52.55828125 24.02210938 -51.9765625 23.29296875 C-39.56472281 8.05495899 -19.33186394 -0.20138997 0 0 Z " fill="#020202" transform="translate(1253.6875,185.5625)"/>
<path d="M0 0 C0.76957031 0.62519531 1.53914062 1.25039062 2.33203125 1.89453125 C3.15703125 2.51585937 3.98203125 3.1371875 4.83203125 3.77734375 C15.99089735 13.22750848 24.15983388 28.71480903 27.33203125 42.89453125 C27.47691877 45.58742024 27.42677815 48.19424459 27.33203125 50.89453125 C26.58107178 51.0961084 25.8301123 51.29768555 25.05639648 51.50537109 C21.6272866 52.42618243 18.19840725 53.34784938 14.76953125 54.26953125 C13.58810547 54.58664063 12.40667969 54.90375 11.18945312 55.23046875 C10.03896484 55.53984375 8.88847656 55.84921875 7.703125 56.16796875 C6.03419189 56.6160791 6.03419189 56.6160791 4.33154297 57.07324219 C1.95621742 57.72362434 -0.40115211 58.40748817 -2.7578125 59.12109375 C-5.66796875 59.89453125 -5.66796875 59.89453125 -9.66796875 59.89453125 C-9.87550781 59.01152344 -10.08304688 58.12851563 -10.296875 57.21875 C-13.15760426 46.07507244 -17.51755994 35.31461574 -27.66796875 28.89453125 C-39.36804916 22.62602102 -53.16537591 20.50833725 -66.16796875 24.08203125 C-76.70097284 27.85266969 -83.69023769 34.34899357 -88.4921875 44.44921875 C-91.58536832 53.51295789 -90.47681852 63.42548748 -87.02734375 72.25 C-80.20131032 85.52938113 -63.51676571 90.59302217 -50.17260742 94.88720703 C-48.00752515 95.56708071 -45.83919774 96.23457694 -43.66796875 96.89453125 C-42.53617188 97.24 -41.404375 97.58546875 -40.23828125 97.94140625 C-38.68753906 98.41320312 -38.68753906 98.41320312 -37.10546875 98.89453125 C-20.49698842 103.98557296 -3.09382665 109.42597382 10.33203125 120.89453125 C11.28916016 121.60416016 11.28916016 121.60416016 12.265625 122.328125 C21.74328471 129.73658805 28.23836072 141.39482666 31.33203125 152.89453125 C31.62851562 153.98765625 31.925 155.08078125 32.23046875 156.20703125 C37.64878592 179.27216123 34.38494804 204.4877017 21.95703125 224.83203125 C12.81628491 238.12585582 1.39174724 247.0508071 -13.66796875 252.89453125 C-14.4259375 253.18972656 -15.18390625 253.48492187 -15.96484375 253.7890625 C-25.88054887 257.3580131 -35.87815402 258.2614831 -46.35546875 258.20703125 C-48.06730347 258.19857178 -48.06730347 258.19857178 -49.8137207 258.18994141 C-70.40018138 257.89549511 -87.38815437 252.46530197 -103.66796875 239.89453125 C-104.41691406 239.32992187 -105.16585937 238.7653125 -105.9375 238.18359375 C-118.97485841 227.64056229 -126.92432789 211.61242775 -131.66796875 195.83203125 C-131.87583008 195.14214111 -132.08369141 194.45225098 -132.29785156 193.74145508 C-133.51836433 189.34835723 -133.73861003 185.42949736 -133.66796875 180.89453125 C-128.72084287 179.60972127 -123.77291808 178.32805258 -118.82421875 177.04931641 C-117.14007468 176.61366108 -115.45615406 176.17714099 -113.77246094 175.73974609 C-111.3553974 175.11199284 -108.9375531 174.48733154 -106.51953125 173.86328125 C-105.38664169 173.56798523 -105.38664169 173.56798523 -104.23086548 173.26672363 C-98.89571216 171.89453125 -98.89571216 171.89453125 -96.66796875 171.89453125 C-96.48733887 172.47831543 -96.30670898 173.06209961 -96.12060547 173.66357422 C-90.62544245 191.24601306 -85.84591591 205.22160488 -68.66796875 214.26953125 C-54.77724637 220.69945054 -40.48019482 220.56533728 -26.2109375 215.3671875 C-17.43470254 211.7192927 -12.6529653 206.53715115 -8.66796875 197.89453125 C-5.40848734 188.70973829 -4.95779781 176.9578646 -7.61328125 167.54296875 C-9.85152705 162.88347592 -12.69074702 159.22429828 -16.66796875 155.89453125 C-17.18488281 155.42660156 -17.70179688 154.95867187 -18.234375 154.4765625 C-26.77541954 147.30060931 -38.22204528 144.31693389 -48.66796875 140.89453125 C-53.10674302 139.44003972 -57.54400976 137.98106921 -61.98046875 136.51953125 C-63.12708984 136.14570313 -64.27371094 135.771875 -65.45507812 135.38671875 C-88.49827562 127.77085721 -110.72871082 116.94658802 -122.453125 94.47265625 C-131.19932278 75.13216976 -133.1240434 52.12733102 -125.95166016 31.87158203 C-118.54135833 12.32457961 -106.2450299 -1.66891117 -87.296875 -10.71484375 C-59.36712551 -22.1147415 -23.96361719 -18.52934809 0 0 Z " fill="#030303" transform="translate(777.66796875,127.10546875)"/>
<path d="M0 0 C1.06476563 -0.020625 2.12953125 -0.04125 3.2265625 -0.0625 C21.57607959 -0.15157533 39.59623778 7.2073907 53.203125 19.55078125 C69.30104448 35.91198446 76.07570883 56.13920947 79.875 78.25 C80.07351563 79.32765625 80.27203125 80.4053125 80.4765625 81.515625 C81.08474641 87.21585855 81.01882146 92.89700133 81 98.625 C81.00386719 99.82511719 81.00773437 101.02523437 81.01171875 102.26171875 C81.00978516 103.96908203 81.00978516 103.96908203 81.0078125 105.7109375 C81.00668457 106.75040527 81.00555664 107.78987305 81.00439453 108.86083984 C80.875 111.25 80.875 111.25 79.875 112.25 C78.30612365 112.34591199 76.73292208 112.37187996 75.16111755 112.37025452 C74.14163025 112.37162918 73.12214294 112.37300385 72.07176208 112.37442017 C70.943918 112.37082489 69.81607391 112.36722961 68.65405273 112.36352539 C67.47372467 112.36367142 66.29339661 112.36381744 65.07730103 112.3639679 C61.83157892 112.36338895 58.58589945 112.35835986 55.34018588 112.35139394 C51.95156968 112.34515962 48.56295272 112.34455654 45.17433167 112.34336853 C38.75344196 112.34025544 32.33256919 112.33204236 25.91168696 112.32201904 C18.60346175 112.3108572 11.29523576 112.30534727 3.98700416 112.30032361 C-11.05034002 112.28985973 -26.08766832 112.27226073 -41.125 112.25 C-40.54666438 115.23961441 -39.95490485 118.22554328 -39.35546875 121.2109375 C-39.19558472 122.04488037 -39.03570068 122.87882324 -38.87097168 123.73803711 C-36.31264477 136.32488323 -30.61790754 148.40629189 -20.125 156.25 C-9.73002904 162.65764628 2.1639711 164.10453778 14.0859375 161.56640625 C27.7084093 156.96834504 34.39864183 147.49753091 40.875 135.25 C48.72474889 136.66006805 56.33610188 138.68276868 64 140.875 C65.14726563 141.19984375 66.29453125 141.5246875 67.4765625 141.859375 C70.27702967 142.6528407 73.07645776 143.44977684 75.875 144.25 C74.27536944 160.0263564 62.70411705 174.76000691 51.08984375 184.859375 C33.80077621 198.3193202 13.23878379 201.55438197 -8.125 200.25 C-12.60332064 199.61358244 -16.8099372 198.5937511 -21.125 197.25 C-22.05441406 196.9715625 -22.98382812 196.693125 -23.94140625 196.40625 C-44.15653091 189.73497131 -58.60620156 175.40031128 -68.25 156.75 C-75.37734858 142.27159774 -79.38051926 127.3505171 -80.125 111.25 C-80.17414551 110.25468262 -80.22329102 109.25936523 -80.27392578 108.23388672 C-81.5893199 76.97088176 -75.70199668 46.10653367 -54.125 22.25 C-39.30098059 6.75333748 -21.13590683 0.10017017 0 0 Z " fill="#030303" transform="translate(1750.125,185.75)"/>
<path d="M0 0 C12.21 0 24.42 0 37 0 C37.33 34.32 37.66 68.64 38 104 C40.31 101.36 42.62 98.72 45 96 C54.99209715 85.77039969 65.86308575 80.83228238 80.09960938 80.56860352 C99.20867729 80.53430378 112.47664243 83.97245807 126.75 97.25 C142.0929239 113.24121646 145.17627761 136.08875119 145.11352539 157.23071289 C145.11367142 158.52925201 145.11381744 159.82779114 145.1139679 161.16567993 C145.11425297 164.70017233 145.10840333 168.23463029 145.10139394 171.76911473 C145.09511192 175.47265651 145.09455278 179.1761992 145.09336853 182.87974548 C145.09026945 189.88119005 145.08207535 196.88261886 145.07201904 203.88405651 C145.06081357 211.85992749 145.05533631 219.83579925 145.05032361 227.81167614 C145.03989145 244.20779475 145.02156379 260.60389168 145 277 C132.46 277 119.92 277 107 277 C106.98541748 273.34728027 106.97083496 269.69456055 106.95581055 265.93115234 C106.9053395 253.82526167 106.83886988 241.7195076 106.76428509 229.61374474 C106.71947725 222.27831848 106.6800288 214.94293915 106.65356445 207.60742188 C106.63046189 201.20762206 106.59692942 194.80797264 106.55129844 188.40829241 C106.52752983 185.02527935 106.50869476 181.64241371 106.50238609 178.25931931 C106.90291153 149.69972085 106.90291153 149.69972085 94 125 C85.00049079 118.29761915 75.72660792 117.77379731 65 119 C56.39730252 121.04883185 49.62983333 127.18366667 44.75 134.375 C36.44928506 149.9405904 37.39621217 167.57867755 37.390625 184.69140625 C37.37561733 187.33514548 37.35907524 189.97883123 37.34051514 192.62254333 C37.30029255 198.82331109 37.27969492 205.02397463 37.26654124 211.2248525 C37.2505553 218.29654672 37.21209255 225.36806641 37.17194796 232.43965828 C37.0900121 246.95972262 37.03859732 261.47975378 37 276 C24.79 276 12.58 276 0 276 C0 184.92 0 93.84 0 0 Z " fill="#020302" transform="translate(1011,105)"/>
<path d="M0 0 C11.57114652 10.25951035 19.85474503 24.52485406 24.515625 39.23046875 C24.27709961 41.38208008 24.27709961 41.38208008 23.515625 43.23046875 C21.13257717 44.26994925 19.00507188 44.99764334 16.515625 45.66796875 C15.81099121 45.87188232 15.10635742 46.0757959 14.38037109 46.28588867 C12.87757565 46.71977574 11.37276335 47.14672623 9.86621094 47.56738281 C7.48329 48.23959026 5.11240443 48.94452746 2.7421875 49.66015625 C-9.1282006 53.23046875 -9.1282006 53.23046875 -11.484375 53.23046875 C-11.98066406 52.16828125 -12.47695313 51.10609375 -12.98828125 50.01171875 C-18.11876605 39.24813468 -23.13726043 29.45824653 -34.484375 24.23046875 C-44.41624094 20.81903611 -56.464561 20.20907824 -66.109375 24.73046875 C-78.2010586 31.94217536 -85.36198979 43.47023863 -89.421875 56.79296875 C-90.89439132 63.21162963 -91.25844606 69.66523957 -91.484375 76.23046875 C-91.53319824 77.27364258 -91.53319824 77.27364258 -91.58300781 78.33789062 C-92.43465089 97.62459539 -88.46307411 116.46445355 -76.109375 131.85546875 C-69.11822741 139.08658708 -59.97113792 143.47001108 -49.921875 143.66796875 C-40.5416214 143.51923323 -30.84824342 140.76284938 -23.96484375 134.06640625 C-17.66130104 126.24934801 -14.58697993 116.63438191 -11.484375 107.23046875 C-7.55090232 107.00569888 -5.09038459 107.73274841 -1.484375 109.23046875 C1.24191594 109.91273204 3.96107775 110.55815345 6.703125 111.16796875 C13.05664122 112.61731559 19.3124432 114.218626 25.515625 116.23046875 C21.57860102 138.27780305 10.07806598 158.32595157 -8.390625 171.296875 C-25.25162285 181.83499865 -45.34764476 185.15058375 -64.96875 181.80712891 C-69.6688012 180.7161903 -74.04529645 179.10774262 -78.484375 177.23046875 C-79.4228125 176.84632813 -80.36125 176.4621875 -81.328125 176.06640625 C-87.82529458 173.11861635 -93.15895628 168.93181496 -98.484375 164.23046875 C-99.309375 163.51246094 -100.134375 162.79445313 -100.984375 162.0546875 C-115.7952584 148.28519434 -123.602605 129.47877569 -128.484375 110.23046875 C-128.67346436 109.52124268 -128.86255371 108.8120166 -129.05737305 108.08129883 C-131.00404073 99.83961963 -130.92720679 91.46316729 -130.921875 83.04296875 C-130.9219455 82.2463382 -130.92201599 81.44970764 -130.92208862 80.62893677 C-130.82341202 51.57177194 -122.80913035 25.49359948 -102.671875 3.91796875 C-73.77805692 -23.01889751 -31.10869306 -24.07663819 0 0 Z " fill="#030303" transform="translate(962.484375,202.76953125)"/>
<path d="M0 0 C12.54 0 25.08 0 38 0 C38 91.08 38 182.16 38 276 C25.46 276 12.92 276 0 276 C0 184.92 0 93.84 0 0 Z " fill="#020202" transform="translate(1537,105)"/>
<path d="M0 0 C1.01449219 -0.00322266 2.02898437 -0.00644531 3.07421875 -0.00976562 C8.01527145 0.02594501 11.69074218 0.2555111 16.25 2.3125 C16.34877559 11.59740574 16.31959354 20.85105772 15.8125 30.125 C15.77326416 30.87056152 15.73402832 31.61612305 15.69360352 32.38427734 C15.47191791 36.10570219 15.09925768 39.67996085 14.25 43.3125 C13.70214844 43.2403125 13.15429688 43.168125 12.58984375 43.09375 C-2.18820852 41.36363656 -15.50375334 41.20225488 -28.36328125 49.3984375 C-40.17974744 58.87481791 -45.04095524 74.79328881 -46.75 89.3125 C-47.30947076 97.44221499 -47.23937558 105.60124756 -47.26171875 113.74609375 C-47.27859522 116.07879055 -47.29674937 118.41147843 -47.31611633 120.74415588 C-47.36330021 126.83490202 -47.39331315 132.92561194 -47.41955566 139.01647949 C-47.44952191 145.25129343 -47.49599645 151.48598293 -47.54101562 157.72070312 C-47.62668857 169.9179174 -47.69266392 182.11511957 -47.75 194.3125 C-60.62 194.3125 -73.49 194.3125 -86.75 194.3125 C-86.75 131.2825 -86.75 68.2525 -86.75 3.3125 C-74.54 3.3125 -62.33 3.3125 -49.75 3.3125 C-49.75 13.5425 -49.75 23.7725 -49.75 34.3125 C-49.09 34.3125 -48.43 34.3125 -47.75 34.3125 C-47.646875 33.59578125 -47.54375 32.8790625 -47.4375 32.140625 C-44.78973337 21.2486759 -34.94229578 11.7379099 -25.75 5.9375 C-17.40776894 0.98430031 -9.580994 -0.15453216 0 0 Z " fill="#040404" transform="translate(1941.75,186.6875)"/>
<path d="M0 0 C14.17092371 8.25538695 20.87297559 20.80308068 25.3671875 36.140625 C30.26396816 56.13244024 28.58934621 79.86657933 18.3125 98 C17.89484375 98.74121094 17.4771875 99.48242188 17.046875 100.24609375 C11.97790867 108.50405264 4.64139644 115.80616118 -4.6875 119 C-16.26307595 121.37987366 -27.38836692 121.14181776 -37.6875 115 C-49.32072148 107.00745191 -56.7415175 93.6154112 -59.63671875 79.9140625 C-63.97160318 56.07773437 -62.42561203 33.27117492 -48.63671875 12.54296875 C-37.11425971 -2.48933753 -17.38303434 -8.29559123 0 0 Z " fill="#FCFCFC" transform="translate(2077.6875,227)"/>
<path d="M0 0 C14.43348979 8.6842167 21.48489424 22.52802091 25.68359375 38.34375 C30.87111847 62.4935826 26.40001076 85.18748207 13.83984375 106.12109375 C8.89434046 113.40847882 1.56926668 117.89605196 -6.890625 120.08984375 C-17.36666526 121.90070214 -26.07013788 120.76569892 -35.03125 115.01953125 C-47.31768163 106.07091354 -54.48469655 91.25298508 -57.19140625 76.46875 C-58.05039162 68.73014302 -57.77357217 60.93015385 -57.66210938 53.15429688 C-57.63176956 51.03530054 -57.61816834 48.91607029 -57.609375 46.796875 C-57.10890911 32.56934458 -50.55304844 17.73097611 -40.9375 7.3125 C-29.51012537 -3.21609235 -14.55701957 -6.65410498 0 0 Z " fill="#FCFCFC" transform="translate(1449.625,226.4375)"/>
<path d="M0 0 C13.707564 9.89766754 20.80810957 24.18680498 24.375 40.375 C27.61589009 62.7605295 23.87619901 85.4294122 11.6875 104.5625 C5.77414613 112.40297366 -2.32622846 117.36561851 -12 119 C-21.09137347 119.926094 -29.61798985 118.65482736 -37.1875 113.3125 C-49.5418071 103.14567585 -56.16474102 88.56064668 -59 73 C-59.40221614 68.03297151 -59.42060394 63.1059633 -59.375 58.125 C-59.38660156 56.86558594 -59.39820313 55.60617187 -59.41015625 54.30859375 C-59.35737784 37.19079473 -55.60164673 20.97388451 -44 8 C-43.14728516 7.02546875 -43.14728516 7.02546875 -42.27734375 6.03125 C-31.43942341 -5.62136595 -13.93725187 -7.78722959 0 0 Z " fill="#FCFCFC" transform="translate(1273,228)"/>
<path d="M0 0 C1.37321411 0.00978882 1.37321411 0.00978882 2.77416992 0.01977539 C13.50253606 0.39563087 21.84603794 4.16430245 29.375 12 C36.33882025 20.83469733 41.8125 33.25631209 41.8125 44.6875 C14.7525 44.6875 -12.3075 44.6875 -40.1875 44.6875 C-40.1875 35.66763245 -40.1875 35.66763245 -39.12109375 32.72265625 C-38.76942139 31.74703735 -38.76942139 31.74703735 -38.41064453 30.75170898 C-38.02175049 29.76086304 -38.02175049 29.76086304 -37.625 28.75 C-37.3554248 28.05269775 -37.08584961 27.35539551 -36.80810547 26.63696289 C-32.22755531 15.34589361 -23.94757884 6.31656353 -12.68066406 1.5144043 C-8.46503218 0.11621147 -4.41424096 -0.0363396 0 0 Z " fill="#FAFAFA" transform="translate(1750.1875,221.3125)"/>
<path d="M0 0 C61.71 0 123.42 0 187 0 C187.061875 21.058125 187.12375 42.11625 187.1875 63.8125 C187.21481201 70.44706299 187.24212402 77.08162598 187.27026367 83.91723633 C187.28381348 92.05603027 187.28381348 92.05603027 187.28633118 95.87333679 C187.29092024 98.52386121 187.30029563 101.1739478 187.31672668 103.8243866 C187.34136521 107.85281265 187.34171424 111.88092257 187.34057617 115.90942383 C187.3513705 117.07836339 187.36216482 118.24730295 187.37328625 119.45166492 C187.30960628 136.37608934 187.30960628 136.37608934 181.89195538 142.30823994 C181.2676101 142.86652076 180.64326483 143.42480158 180 144 C180.2115463 143.28374325 180.42309259 142.5674865 180.64104939 141.82952499 C182.76424055 134.1182973 183.44237161 127.04536572 183.43237305 119.07128906 C183.44264684 117.82090725 183.45292063 116.57052544 183.46350574 115.28225327 C183.48824617 111.93884231 183.50054387 108.59587378 183.50647736 105.25241089 C183.51479294 102.10033085 183.53917931 98.94838947 183.56213379 95.79638672 C183.61984255 86.61434407 183.6521629 77.432156 183.6875 68.25 C183.8421875 37.43625 183.8421875 37.43625 184 6 C124.93 6 65.86 6 5 6 C5 48.24 5 90.48 5 134 C5.66 133.67 6.32 133.34 7 133 C7.495 138.94 7.495 138.94 8 145 C9.65 144.67 11.3 144.34 13 144 C13 144.99 13 145.98 13 147 C10.69921875 147.25 10.69921875 147.25 8 147 C6.26953125 145.3125 6.26953125 145.3125 4.8125 143 C4.07966797 141.88625 4.07966797 141.88625 3.33203125 140.75 C-0.38407535 133.07803799 -0.27763288 125.51638525 -0.22705078 117.15820312 C-0.22729185 115.86865471 -0.22753292 114.57910629 -0.2277813 113.25048065 C-0.22823024 109.78259117 -0.21669312 106.31484153 -0.20256042 102.84698486 C-0.19111588 99.58516843 -0.19063122 96.32335754 -0.18920898 93.06152344 C-0.17874127 83.54099732 -0.15081876 74.02049686 -0.125 64.5 C-0.08375 43.215 -0.0425 21.93 0 0 Z " fill="#1D278A" transform="translate(167,333)"/>
<path d="M0 0 C3.75472713 1.4628807 5.1287214 3.30093225 7.125 6.75 C7.62257813 7.59046875 8.12015625 8.4309375 8.6328125 9.296875 C11.15496815 14.28353703 12.25025796 18.60218846 12.24050903 24.18832397 C12.24464152 26.01437196 12.24464152 26.01437196 12.2488575 27.8773098 C12.24176528 29.21817493 12.2344895 30.55903909 12.22705078 31.89990234 C12.22643765 33.34240521 12.22670589 34.78490867 12.2277813 36.22741127 C12.22823172 40.08078187 12.21666312 43.93402757 12.20256042 47.78736877 C12.19114741 51.40683372 12.19063293 55.02626871 12.18920898 58.64575195 C12.17872577 69.22218443 12.15080335 79.7985938 12.125 90.375 C12.08375 114.01125 12.0425 137.6475 12 162 C-49.71 162 -111.42 162 -175 162 C-175.04125 138.19875 -175.0825 114.3975 -175.125 89.875 C-175.14320801 82.35960449 -175.16141602 74.84420898 -175.18017578 67.10107422 C-175.18920898 57.92407227 -175.18920898 57.92407227 -175.19088745 53.62796021 C-175.19275079 50.62736046 -175.20024598 47.62683148 -175.21115112 44.62625122 C-175.22488328 40.79700279 -175.2289797 36.96785705 -175.22614455 33.13858628 C-175.22673728 31.73438958 -175.23069492 30.33018923 -175.23843026 28.92601371 C-175.24840889 27.02613116 -175.24477921 25.12619179 -175.24050903 23.22628784 C-175.24235262 22.16253874 -175.24419621 21.09878963 -175.24609566 20.00280571 C-174.9787116 16.7402436 -174.15200771 14.053629 -173 11 C-172.34 11 -171.68 11 -171 11 C-169.98073099 14.36992926 -169.87668599 17.43551608 -169.87974548 20.94781494 C-169.87837082 22.16495178 -169.87699615 23.38208862 -169.87557983 24.6361084 C-169.87911871 25.9816897 -169.88275352 27.32727075 -169.88647461 28.67285156 C-169.88675673 30.09214272 -169.88659825 31.51143402 -169.8860321 32.9307251 C-169.88574511 36.78161787 -169.89162601 40.63247952 -169.89860606 44.48336506 C-169.90485591 48.5085821 -169.90544469 52.53379985 -169.90663147 56.559021 C-169.90973997 64.18041083 -169.91794688 71.80178633 -169.92798096 79.42316985 C-169.93915703 88.10024186 -169.94465632 96.77731455 -169.94967639 105.45439196 C-169.96012988 123.3029361 -169.97772003 141.1514669 -170 159 C-169.1686148 158.99907821 -168.3372296 158.99815641 -167.4806509 158.99720669 C-147.19655254 158.97506605 -126.91245628 158.95854693 -106.62834835 158.94818783 C-96.81887819 158.94304435 -87.00941613 158.93603899 -77.19995117 158.92456055 C-68.64421141 158.91455396 -60.08847752 158.90813242 -51.53273207 158.90591151 C-47.00784139 158.9046145 -42.48296748 158.90159319 -37.9580822 158.89426994 C-33.68753262 158.88741519 -29.41700651 158.88540201 -25.14645195 158.88689232 C-23.59018323 158.8866202 -22.03391361 158.88467173 -20.47764969 158.88079453 C-10.6048781 158.85743218 -0.84427689 159.21469014 9 160 C8.9395179 141.40682648 8.86205534 122.81379804 8.76428509 104.22078228 C8.71928778 95.58803718 8.67988229 86.95533369 8.65356445 78.32250977 C8.63061614 70.79958743 8.59725383 63.27679636 8.55129844 55.75397807 C8.52732327 51.76936782 8.50862274 47.78488792 8.50238609 43.80020714 C8.49635451 40.05156223 8.47642527 36.30325103 8.44572449 32.55472946 C8.43691317 31.17727662 8.43322806 29.79978023 8.43499184 28.42230034 C8.43663726 26.54469422 8.41822506 24.66710216 8.39872742 22.78959656 C8.39181397 21.21194787 8.39181397 21.21194787 8.38476086 19.60242748 C7.93709394 16.57451891 7.17826108 16.00692094 5 14 C4.77553978 11.97985799 4.55376135 9.95896597 4.3828125 7.93359375 C3.81998529 5.090742 2.16248645 3.81369831 0 2 C0 1.34 0 0.68 0 0 Z " fill="#272F7F" transform="translate(342,0)"/>
<path d="M0 0 C0.33 0 0.66 0 1 0 C1 46.53 1 93.06 1 141 C97.36 141 193.72 141 293 141 C293 141.33 293 141.66 293 142 C258.68 142 224.36 142 189 142 C189 197.77 189 253.54 189 311 C223.32 311 257.64 311 293 311 C293 311.33 293 311.66 293 312 C258.68 312 224.36 312 189 312 C189.33 356.88 189.66 401.76 190 448 C189.01 448 188.02 448 187 448 C185.6499202 445.2998404 186.38408327 443.92540771 187 441 C187.09654731 439.16891445 187.14572072 437.33497505 187.15821838 435.50138855 C187.1680072 434.40908936 187.17779602 433.31679016 187.18788147 432.19139099 C187.19363693 431.0031221 187.1993924 429.81485321 187.20532227 428.59057617 C187.21522186 427.33163544 187.22512146 426.0726947 187.23532104 424.77560425 C187.26229244 421.3318154 187.28334388 417.88801295 187.30332303 414.44417739 C187.32523065 410.8420171 187.35259592 407.23989835 187.37937927 403.63777161 C187.4292417 396.82038717 187.47420439 390.0029796 187.51740164 383.18555003 C187.56682922 375.4225556 187.62172683 367.65960285 187.67708123 359.89664876 C187.79080223 343.93113773 187.89766268 327.96558831 188 312 C187.34 311.67 186.68 311.34 186 311 C186.66 311 187.32 311 188 311 C188 255.23 188 199.46 188 142 C126.29 142 64.58 142 1 142 C1 240.34 1 338.68 1 440 C0.67 440 0.34 440 0 440 C0 341.66 0 243.32 0 142 C-33 142 -66 142 -100 142 C-100 141.67 -100 141.34 -100 141 C-67 141 -34 141 0 141 C0 94.47 0 47.94 0 0 Z " fill="#8F93BE" transform="translate(166,21)"/>
<path d="M0 0 C27.72 0 55.44 0 84 0 C84 56.1 84 112.2 84 170 C67.665 170.0825 51.33 170.165 34.5 170.25 C26.80913086 170.30462402 26.80913086 170.30462402 18.96289062 170.36035156 C12.62402344 170.37841797 12.62402344 170.37841797 9.64147949 170.3817749 C7.59131379 170.38785288 5.54116092 170.40178492 3.49108887 170.42230225 C-12.56134802 170.57470074 -27.37902657 169.78145048 -41.8125 161.9375 C-42.47830078 161.59912109 -43.14410156 161.26074219 -43.83007812 160.91210938 C-46.96475315 159.28005803 -49.71188153 157.73043133 -52 155 C-48.32264395 153.77421465 -47.44933477 154.53403272 -44 156 C-43.01 156 -42.02 156 -41 156 C-41 156.99 -41 157.98 -41 159 C-38.03 159.33 -35.06 159.66 -32 160 C-32 160.66 -32 161.32 -32 162 C-31.34 162.33 -30.68 162.66 -30 163 C-30.33 163.33 -30.66 163.66 -31 164 C-24.42243777 165.68129893 -18.47923381 166.28044337 -11.70678711 166.22705078 C-10.72036224 166.22734283 -9.73393738 166.22763489 -8.71762085 166.22793579 C-5.48743607 166.22655284 -2.25748777 166.21104062 0.97265625 166.1953125 C3.2242368 166.19157869 5.47581898 166.18873346 7.72740173 166.18673706 C13.63089547 166.1791296 19.53428956 166.15950602 25.43774414 166.1373291 C31.47085218 166.11680833 37.50397644 166.10772205 43.53710938 166.09765625 C55.3581165 166.07625731 67.17904994 166.0421564 79 166 C78.9690625 164.0509375 78.9690625 164.0509375 78.9375 162.0625 C78.91600546 160.70834367 78.92851801 159.35243917 79 158 C79.33 157.67 79.66 157.34 80 157 C79.67 157 79.34 157 79 157 C79 150.66666667 79 144.33333333 79 138 C78.9690625 136.205625 78.9690625 136.205625 78.9375 134.375 C78.92338102 130.5487554 79.32777392 126.86120618 79.87890625 123.078125 C80.10860402 121.02716371 80.10860402 121.02716371 79.51664734 119.21482849 C78.90255231 116.58224904 78.86535243 114.18855604 78.85473633 111.48461914 C78.84835648 110.37989761 78.84197662 109.27517609 78.83540344 108.13697815 C78.83373421 106.35407631 78.83373421 106.35407631 78.83203125 104.53515625 C78.82870285 103.30969589 78.82537445 102.08423553 78.82194519 100.82164001 C78.81688284 98.23013687 78.81453665 95.63862722 78.81469727 93.04711914 C78.81251044 89.0814339 78.79434611 85.11602666 78.77539062 81.15039062 C78.77245665 78.63281345 78.77047188 76.11523496 78.76953125 73.59765625 C78.76234573 72.41107925 78.75516022 71.22450226 78.74775696 70.00196838 C78.75083359 68.8940947 78.75391022 67.78622101 78.75708008 66.64477539 C78.75565506 65.67310928 78.75423004 64.70144318 78.75276184 63.70033264 C79.0194282 60.78780539 79.9154941 58.69957837 81 56 C81.28566214 53.35609253 81.28566214 53.35609253 81.22705078 50.56713867 C81.22689972 49.50641647 81.22674866 48.44569427 81.22659302 47.35282898 C81.21627045 46.2193251 81.20594788 45.08582123 81.1953125 43.91796875 C81.1924826 42.74865311 81.18965271 41.57933746 81.18673706 40.37458801 C81.17555562 36.64545392 81.15045434 32.91656132 81.125 29.1875 C81.11496759 26.65690451 81.10584219 24.12630526 81.09765625 21.59570312 C81.07562292 15.39705323 81.04216534 9.19854387 81 3 C79.25008666 2.97284617 77.50005055 2.95353449 75.75 2.9375 C74.77546875 2.92589844 73.8009375 2.91429687 72.796875 2.90234375 C70.07747588 2.89534964 70.07747588 2.89534964 67.828125 3.56640625 C66 4 66 4 63 3 C63 2.34 63 1.68 63 1 C42.21 1 21.42 1 0 1 C0 0.67 0 0.34 0 0 Z " fill="#272F85" transform="translate(82,163)"/>
<path d="M0 0 C61.71 0 123.42 0 187 0 C187 42.57 187 85.14 187 129 C186.67 129 186.34 129 186 129 C186 86.76 186 44.52 186 1 C185.67 1.99 185.34 2.98 185 4 C93.92 4.495 93.92 4.495 1 5 C1.33 47.24 1.66 89.48 2 133 C-0.23038647 129.6544203 -0.24803483 128.60605829 -0.24050903 124.70393372 C-0.24326403 123.60825231 -0.24601902 122.5125709 -0.2488575 121.38368702 C-0.24166128 120.17659423 -0.23446507 118.96950144 -0.22705078 117.72583008 C-0.22729185 116.43688434 -0.22753292 115.14793859 -0.2277813 113.81993389 C-0.22823311 110.33102813 -0.21663537 106.84225935 -0.20256042 103.35338593 C-0.19117669 100.08044306 -0.19063452 96.80750622 -0.18920898 93.5345459 C-0.1787113 83.96051243 -0.15078903 74.38650449 -0.125 64.8125 C-0.08375 43.424375 -0.0425 22.03625 0 0 Z " fill="#313887" transform="translate(167,333)"/>
<path d="M0 0 C26.1421875 -0.061875 26.1421875 -0.061875 52.8125 -0.125 C61.04151245 -0.15231201 61.04151245 -0.15231201 69.43676758 -0.18017578 C76.17907715 -0.18920898 76.17907715 -0.18920898 79.34379578 -0.19088745 C81.53582066 -0.1939418 83.72784235 -0.2009408 85.91984558 -0.21115112 C89.25627404 -0.22590403 92.59249863 -0.22780819 95.92895508 -0.22705078 C97.37320846 -0.23784511 97.37320846 -0.23784511 98.84663868 -0.2488575 C119.12739514 -0.18769889 135.7410126 8.15004706 150.19921875 22.09765625 C163.57436742 35.57265333 170.14484249 52.94876503 170.16796875 71.76171875 C170.17129715 72.70755325 170.17462555 73.65338776 170.17805481 74.62788391 C170.18310933 76.62748734 170.18546359 78.62709917 170.18530273 80.62670898 C170.18747989 83.65948719 170.20562564 86.6918959 170.22460938 89.72460938 C170.22754561 91.67447793 170.22952886 93.62434821 170.23046875 95.57421875 C170.23765427 96.46936691 170.24483978 97.36451508 170.25224304 98.28678894 C170.2304776 104.3992454 169.40225452 110.05338645 168 116 C167.67 116 167.34 116 167 116 C167.00444122 115.34569 167.00888245 114.69138 167.01345825 114.01724243 C167.05790805 107.17085975 167.08795591 100.32451847 167.10986328 93.47802734 C167.11988416 90.92722914 167.13350451 88.37644231 167.15087891 85.82568359 C167.17529958 82.14678121 167.18652259 78.46803151 167.1953125 74.7890625 C167.20563507 73.65949127 167.21595764 72.52992004 167.22659302 71.36611938 C167.22753272 64.64553292 166.53572864 58.53401967 165 52 C164.65549886 50.00189338 164.31622777 48.00277585 164 46 C163.34 46 162.68 46 162 46 C162 44.68 162 43.36 162 42 C161.34 42 160.68 42 160 42 C159.6596875 40.6696875 159.6596875 40.6696875 159.3125 39.3125 C157.81024151 35.52108572 155.89381447 33.82323363 153 31 C152.505 29.989375 152.01 28.97875 151.5 27.9375 C149.81190889 24.63165491 147.92242935 23.21156816 145 21 C145 20.34 145 19.68 145 19 C143.68 18.67 142.36 18.34 141 18 C141 17.34 141 16.68 141 16 C140.34 16 139.68 16 139 16 C139 15.34 139 14.68 139 14 C137.824375 13.7834375 137.824375 13.7834375 136.625 13.5625 C134 13 134 13 132 12 C132 11.34 132 10.68 132 10 C131.175 9.731875 130.35 9.46375 129.5 9.1875 C126.97591148 8.33111282 124.53461778 7.42056438 122.0625 6.4375 C118.36598237 5.02726784 114.92863611 4.40923293 111 4 C111 3.34 111 2.68 111 2 C75.03 2 39.06 2 2 2 C1.67 56.78 1.34 111.56 1 168 C18.469375 167.95875 35.93875 167.9175 53.9375 167.875 C59.42109131 167.87741699 64.90468262 167.87983398 70.55444336 167.88232422 C75.53848539 167.85573498 75.53848539 167.85573498 80.5224762 167.82131958 C82.71503278 167.80989647 84.90766995 167.80994558 87.10023499 167.8196106 C99.92565929 167.86714038 110.97764083 167.36085231 122.87721252 162.28421021 C126 161 126 161 129 161 C129.33 160.01 129.66 159.02 130 158 C133.5625 156.8125 133.5625 156.8125 137 156 C137 155.34 137 154.68 137 154 C137.99 154 138.98 154 140 154 C140.1546875 153.0409375 140.1546875 153.0409375 140.3125 152.0625 C140.539375 151.381875 140.76625 150.70125 141 150 C141.99 149.67 142.98 149.34 144 149 C145.20882096 146.99983534 145.20882096 146.99983534 146 145 C146.99 145 147.98 145 149 145 C149 144.01 149 143.02 149 142 C149.58910156 141.77183594 150.17820312 141.54367187 150.78515625 141.30859375 C158.10533874 136.9836182 161.83947804 125.52990715 165 118 C165.66 118 166.32 118 167 118 C164.03294354 128.77509977 158.15792027 137.5218411 151 146 C150.50242187 146.59425781 150.00484375 147.18851563 149.4921875 147.80078125 C139.79765985 158.39655896 122.38586955 168.3104145 107.78989792 169.12304783 C106.98240726 169.12212604 106.17491661 169.12120424 105.34295654 169.12025452 C104.41382824 169.12163201 103.48469994 169.12300951 102.52741623 169.12442875 C101.5112888 169.12083064 100.49516136 169.11723253 99.44824219 169.11352539 C97.81200834 169.11370619 97.81200834 169.11370619 96.14271927 169.11389065 C92.61075046 169.11314409 89.07883437 169.10552749 85.546875 169.09765625 C83.36669948 169.09618604 81.1865236 169.09516581 79.00634766 169.09460449 C70.92089306 169.08936082 62.83544601 169.07539964 54.75 169.0625 C27.64875 169.0315625 27.64875 169.0315625 0 169 C0 113.23 0 57.46 0 0 Z " fill="#3DBCB4" transform="translate(355,163)"/>
<path d="M0 0 C34.65 0 69.3 0 105 0 C105 0.33 105 0.66 105 1 C70.68 1 36.36 1 1 1 C1 56.77 1 112.54 1 170 C35.32 170 69.64 170 105 170 C105 170.33 105 170.66 105 171 C70.68 171 36.36 171 1 171 C1.33 215.88 1.66 260.76 2 307 C1.01 307 0.02 307 -1 307 C-2.3500798 304.2998404 -1.61591673 302.92540771 -1 300 C-0.90345269 298.16891445 -0.85427928 296.33497505 -0.84178162 294.50138855 C-0.8319928 293.40908936 -0.82220398 292.31679016 -0.81211853 291.19139099 C-0.80636307 290.0031221 -0.8006076 288.81485321 -0.79467773 287.59057617 C-0.78477814 286.33163544 -0.77487854 285.0726947 -0.76467896 283.77560425 C-0.73770756 280.3318154 -0.71665612 276.88801295 -0.69667697 273.44417739 C-0.67476935 269.8420171 -0.64740408 266.23989835 -0.62062073 262.63777161 C-0.5707583 255.82038717 -0.52579561 249.0029796 -0.48259836 242.18555003 C-0.43317078 234.4225556 -0.37827317 226.65960285 -0.32291877 218.89664876 C-0.20919777 202.93113773 -0.10233732 186.96558831 0 171 C-0.66 170.67 -1.32 170.34 -2 170 C-1.34 170 -0.68 170 0 170 C0 113.9 0 57.8 0 0 Z " fill="#7CD7D1" transform="translate(354,162)"/>
<path d="M0 0 C1.24051369 -0.00422974 1.24051369 -0.00422974 2.50608826 -0.00854492 C3.86199821 -0.00550858 3.86199821 -0.00550858 5.24530029 -0.00241089 C6.67749657 -0.00503937 6.67749657 -0.00503937 8.1386261 -0.00772095 C11.30278326 -0.0121307 14.46688473 -0.00920359 17.63104248 -0.00582886 C19.82958995 -0.00650237 22.02813735 -0.00747279 24.22668457 -0.00872803 C28.84015612 -0.010204 33.45360833 -0.00805449 38.06707764 -0.00338745 C43.97288182 0.00229638 49.87864041 -0.00096127 55.7844429 -0.00695992 C60.32782329 -0.01057967 64.87119295 -0.0094202 69.41457367 -0.00683212 C71.591418 -0.00616607 73.76826332 -0.00698001 75.94510651 -0.00931168 C78.99441594 -0.01185989 82.04365251 -0.00796643 85.09295654 -0.00241089 C85.98879959 -0.00443512 86.88464264 -0.00645935 87.80763245 -0.00854492 C92.62104855 0.00764639 97.18115922 0.31771623 101.92791748 1.12698364 C101.92791748 1.78698364 101.92791748 2.44698364 101.92791748 3.12698364 C103.47479248 3.06510864 103.47479248 3.06510864 105.05291748 3.00198364 C108.79621375 3.12273514 111.46526295 3.77570383 114.92791748 5.12698364 C114.92791748 5.45698364 114.92791748 5.78698364 114.92791748 6.12698364 C110.22042536 6.45541333 106.3794565 5.80856281 101.80291748 4.62698364 C95.94719045 3.17660681 90.62022331 2.89865947 84.60760498 3.11917114 C81.92791748 3.12698364 81.92791748 3.12698364 78.92791748 2.12698364 C76.88666738 2.03222473 74.84245853 1.99626132 72.79901123 1.99417114 C70.99980225 1.99223755 70.99980225 1.99223755 69.16424561 1.99026489 C67.91063232 1.99413208 66.65701904 1.99799927 65.36541748 2.00198364 C64.10793701 1.99811646 62.85045654 1.99424927 61.55487061 1.99026489 C60.35668701 1.99155396 59.15850342 1.99284302 57.92401123 1.99417114 C56.82242676 1.99529907 55.72084229 1.996427 54.58587646 1.99758911 C51.95237468 1.94675768 51.95237468 1.94675768 49.92791748 3.12698364 C47.20594919 3.03625137 44.5169603 2.89026742 41.80291748 2.68948364 C31.94182775 1.84585151 31.94182775 1.84585151 22.13104248 2.63088989 C16.3472512 3.5266722 10.46975736 3.12354179 4.63104248 3.00003052 C3.67197998 2.98907349 2.71291748 2.97811646 1.72479248 2.96682739 C0.8517749 2.94998901 -0.02124268 2.93315063 -0.92071533 2.915802 C-3.28647252 2.91827647 -3.28647252 2.91827647 -5.07208252 5.12698364 C-5.2767219 7.07582922 -5.2767219 7.07582922 -5.13458252 9.18948364 C-5.11395752 10.48885864 -5.09333252 11.78823364 -5.07208252 13.12698364 C-5.40208252 13.45698364 -5.73208252 13.78698364 -6.07208252 14.12698364 C-6.18100225 16.0882571 -6.21898416 18.053483 -6.2303009 20.01774597 C-6.24008972 21.29807205 -6.24987854 22.57839813 -6.25996399 23.89752197 C-6.26586896 25.32955895 -6.27167935 26.76159632 -6.27740479 28.19363403 C-6.28697786 29.69130223 -6.29698759 31.18896768 -6.30740356 32.68663025 C-6.33452064 36.76493593 -6.35549324 40.84325326 -6.37540555 44.92159963 C-6.3972233 49.1790832 -6.42463252 53.43653058 -6.45146179 57.69398499 C-6.50144581 65.76168926 -6.54636338 73.82941357 -6.58948416 81.89715713 C-6.64802281 92.7951413 -6.71434022 103.69307791 -6.78023434 114.59101963 C-6.88389829 131.76964229 -6.97712805 148.94830552 -7.07208252 166.12698364 C28.89791748 165.79698364 64.86791748 165.46698364 101.92791748 165.12698364 C99.92791748 167.12698364 99.92791748 167.12698364 97.9951458 167.3730793 C97.20056025 167.37123571 96.40597469 167.36939213 95.58731079 167.36749268 C94.67583282 167.370242 93.76435486 167.37299133 92.82525635 167.37582397 C91.82256714 167.36863342 90.81987793 167.36144287 89.7868042 167.35403442 C88.73312653 167.35432648 87.67944885 167.35461853 86.59384155 167.35491943 C83.09834664 167.35352202 79.60306282 167.33794141 76.10760498 167.32229614 C73.68907793 167.31856748 71.27054937 167.31571982 68.85202026 167.3137207 C62.47660169 167.30607273 56.10127378 167.28641423 49.72589111 167.26431274 C43.2242353 167.24387937 36.72256488 167.23472436 30.22088623 167.22463989 C17.45652456 167.20316945 4.69222583 167.1694022 -8.07208252 167.12698364 C-8.0954161 145.77858303 -8.11306396 124.43018452 -8.12389469 103.08177376 C-8.12905667 93.16991882 -8.13609751 83.25807179 -8.14752197 73.34622192 C-8.1574718 64.70966966 -8.16393666 56.07312312 -8.16617101 47.43656528 C-8.16747761 42.86122801 -8.17056027 38.28590713 -8.17781258 33.7105751 C-8.18457749 29.40805585 -8.18669851 25.1055598 -8.1851902 20.80303574 C-8.18546632 19.22034326 -8.18746866 17.63765005 -8.19128799 16.05496216 C-8.19623258 13.9011348 -8.19507796 11.74739613 -8.19233704 9.59356689 C-8.19325883 8.38601809 -8.19418062 7.17846928 -8.19513035 5.93432808 C-8.07208252 3.12698364 -8.07208252 3.12698364 -7.07208252 1.12698364 C-4.35408799 0.22098547 -2.79080043 0.00146505 0 0 Z " fill="#31C9C1" transform="translate(364.07208251953125,163.87301635742188)"/>
<path d="M0 0 C0.33 0 0.66 0 1 0 C1 44.88 1 89.76 1 136 C37.55798078 135.84193817 37.55798078 135.84193817 74.11572266 135.63964844 C81.2253418 135.62158203 81.2253418 135.62158203 84.56552124 135.6182251 C86.8724375 135.61212798 89.17934192 135.59815459 91.48617554 135.57769775 C120.51937591 135.33335565 120.51937591 135.33335565 132 142 C132.33 142.66 132.66 143.32 133 144 C134.11375 144.45375 135.2275 144.9075 136.375 145.375 C139.87436327 146.94368009 141.11305411 147.78109231 143 151 C142.67 151.66 142.34 152.32 142 153 C141.22398437 152.48050781 140.44796875 151.96101562 139.6484375 151.42578125 C125.55181241 142.32521541 111.02680171 137.71966004 94.22607422 137.68115234 C93.18408937 137.67099909 92.14210453 137.66084583 91.06854439 137.6503849 C87.73059514 137.62000473 84.39273002 137.60266656 81.0546875 137.5859375 C78.97989183 137.56898174 76.90510302 137.55116279 74.83032227 137.5324707 C67.17862691 137.4695414 59.52680194 137.42325976 51.875 137.375 C34.75625 137.25125 17.6375 137.1275 0 137 C0 91.79 0 46.58 0 0 Z " fill="#CFE5F4" transform="translate(354,25)"/>
<path d="M0 0 C0.66 0 1.32 0 2 0 C2.00634791 0.96990734 2.00634791 0.96990734 2.01282406 1.95940876 C2.1160676 17.68286273 2.22469589 33.40626885 2.33933926 49.12964344 C2.39464934 56.73330458 2.44812772 64.33697041 2.49731445 71.94067383 C2.54018341 78.56700566 2.58646826 85.19330325 2.63687855 91.81958216 C2.66345763 95.32908498 2.68831017 98.83858111 2.70907402 102.34812355 C2.73230072 106.26313428 2.76315273 110.17806442 2.79467773 114.09301758 C2.8004332 115.2604248 2.80618866 116.42783203 2.81211853 117.63061523 C2.82680176 119.22707634 2.82680176 119.22707634 2.84178162 120.85578918 C2.84823417 121.78219113 2.85468672 122.70859308 2.8613348 123.66306782 C2.90783436 126.15596958 2.90783436 126.15596958 4 129 C4.66 128.67 5.32 128.34 6 128 C6.495 133.94 6.495 133.94 7 140 C8.65 139.67 10.3 139.34 12 139 C12 139.99 12 140.98 12 142 C9.703125 142.26171875 9.703125 142.26171875 7 142 C5.234375 140.20703125 5.234375 140.20703125 3.75 137.8125 C3.24984375 137.03519531 2.7496875 136.25789062 2.234375 135.45703125 C0.12149523 131.2513307 -0.12482144 127.19304259 -0.12025452 122.53935242 C-0.12162918 121.45546738 -0.12300385 120.37158234 -0.12442017 119.25485229 C-0.12082489 118.07593414 -0.11722961 116.89701599 -0.11352539 115.68237305 C-0.11367142 114.43318588 -0.11381744 113.18399872 -0.1139679 111.8969574 C-0.11339135 108.47998328 -0.10838224 105.06306986 -0.10139394 101.64610648 C-0.09513505 98.07200026 -0.09455459 94.4978932 -0.09336853 90.92378235 C-0.09026269 84.15949133 -0.08205937 77.39521652 -0.07201904 70.63093263 C-0.0608347 62.92842618 -0.0553416 55.22591894 -0.05032361 47.52340639 C-0.03987614 31.68226155 -0.02229116 15.84113287 0 0 Z " fill="#2A338F" transform="translate(168,338)"/>
<path d="M0 0 C2.05543344 3.39785926 2.24737206 6.00843493 2.24050903 9.94781494 C2.24325836 11.16495178 2.24600769 12.38208862 2.24884033 13.6361084 C2.24176257 14.98169044 2.23449296 16.32727149 2.22705078 17.67285156 C2.22648653 19.09214266 2.22680349 20.51143434 2.22793579 21.9307251 C2.22850978 25.78165624 2.21674804 29.63246286 2.20278788 33.48336506 C2.1902882 37.50857729 2.18911062 41.53379235 2.18673706 45.559021 C2.18052005 53.18043149 2.16410624 60.80178462 2.14403808 68.42316985 C2.12168596 77.10023577 2.11068738 85.77730442 2.10064721 94.45439196 C2.07974021 112.30296049 2.04455993 130.15147563 2 148 C1.34 148 0.68 148 0 148 C-0.15390288 129.29386076 -0.30193613 110.58768387 -0.4429636 91.88144302 C-0.50858082 83.19600249 -0.5761256 74.51058491 -0.64819336 65.82519531 C-0.71099571 58.25585671 -0.77019654 50.68650002 -0.82505554 43.11709952 C-0.85423458 39.10841696 -0.88522859 35.0997668 -0.92053413 31.09113312 C-0.95370111 27.31885841 -0.98205601 23.54657827 -1.00670624 19.77423859 C-1.0166082 18.38910538 -1.02827451 17.0039835 -1.04183006 15.61888123 C-1.06006688 13.72856565 -1.07135741 11.83818686 -1.08229065 9.94781494 C-1.09058679 8.8895966 -1.09888292 7.83137825 -1.10743046 6.74109268 C-1.01242616 4.31705407 -0.70231393 2.31087194 0 0 Z " fill="#232C94" transform="translate(170,11)"/>
<path d="M0 0 C19.83370929 -0.65028555 36.30870517 7.31320409 50.71289062 20.66381836 C62.98771418 32.50515193 71.81393911 49.12345442 72.14526367 66.44799805 C72.15858512 68.21920436 72.16579139 69.99046368 72.16796875 71.76171875 C72.17296135 73.1804705 72.17296135 73.1804705 72.17805481 74.62788391 C72.18310933 76.62748734 72.18546359 78.62709917 72.18530273 80.62670898 C72.18747989 83.65948719 72.20562564 86.6918959 72.22460938 89.72460938 C72.22754561 91.67447793 72.22952886 93.62434821 72.23046875 95.57421875 C72.23765427 96.46936691 72.24483978 97.36451508 72.25224304 98.28678894 C72.2304776 104.3992454 71.40225452 110.05338645 70 116 C69.67 116 69.34 116 69 116 C69.00444122 115.34569 69.00888245 114.69138 69.01345825 114.01724243 C69.05790805 107.17085975 69.08795591 100.32451847 69.10986328 93.47802734 C69.11988416 90.92722914 69.13350451 88.37644231 69.15087891 85.82568359 C69.17529958 82.14678121 69.18652259 78.46803151 69.1953125 74.7890625 C69.20563507 73.65949127 69.21595764 72.52992004 69.22659302 71.36611938 C69.22753272 64.64553292 68.53572864 58.53401967 67 52 C66.65549886 50.00189338 66.31622777 48.00277585 66 46 C65.34 46 64.68 46 64 46 C64 44.68 64 43.36 64 42 C63.34 42 62.68 42 62 42 C61.773125 41.113125 61.54625 40.22625 61.3125 39.3125 C59.81024151 35.52108572 57.89381447 33.82323363 55 31 C54.505 29.989375 54.01 28.97875 53.5 27.9375 C51.81190889 24.63165491 49.92242935 23.21156816 47 21 C47 20.34 47 19.68 47 19 C45.68 18.67 44.36 18.34 43 18 C43 17.34 43 16.68 43 16 C42.34 16 41.68 16 41 16 C41 15.34 41 14.68 41 14 C40.21625 13.855625 39.4325 13.71125 38.625 13.5625 C36 13 36 13 34 12 C34 11.34 34 10.68 34 10 C33.175 9.731875 32.35 9.46375 31.5 9.1875 C28.97591148 8.33111282 26.53461778 7.42056438 24.0625 6.4375 C20.36598237 5.02726784 16.92863611 4.40923293 13 4 C13 3.34 13 2.68 13 2 C8.71 1.67 4.42 1.34 0 1 C0 0.67 0 0.34 0 0 Z " fill="#4CC5BE" transform="translate(453,163)"/>
<path d="M0 0 C1.010625 0.350625 2.02125 0.70125 3.0625 1.0625 C4.0525 1.0625 5.0425 1.0625 6.0625 1.0625 C6.0625 2.0525 6.0625 3.0425 6.0625 4.0625 C9.0325 4.3925 12.0025 4.7225 15.0625 5.0625 C15.0625 5.7225 15.0625 6.3825 15.0625 7.0625 C15.7225 7.3925 16.3825 7.7225 17.0625 8.0625 C16.7325 8.3925 16.4025 8.7225 16.0625 9.0625 C29.50900957 13.01114823 42.20416627 13.66629955 56.16015625 13.671875 C58.33305573 13.68689172 60.50594394 13.70362604 62.67881775 13.72198486 C68.33884264 13.76527882 73.99871368 13.78557242 79.65887451 13.80072021 C85.458221 13.82042956 91.25740459 13.86238305 97.05664062 13.90234375 C108.39187636 13.97723374 119.72707493 14.02777334 131.0625 14.0625 C131.0625 14.3925 131.0625 14.7225 131.0625 15.0625 C118.17012941 15.15561696 105.27784024 15.22647533 92.3852005 15.26974869 C86.39714081 15.29052887 80.40931301 15.31866994 74.42138672 15.36425781 C68.63120783 15.40805896 62.8412505 15.43170886 57.05091858 15.44200897 C54.85356667 15.44933928 52.65622542 15.46365162 50.45896912 15.48542023 C34.4404365 15.6376535 19.65170981 14.82668837 5.25 7 C4.58419922 6.66162109 3.91839844 6.32324219 3.23242188 5.97460938 C0.09774685 4.34255803 -2.64938153 2.79293133 -4.9375 0.0625 C-2.9375 -0.9375 -2.9375 -0.9375 0 0 Z " fill="#535997" transform="translate(34.9375,317.9375)"/>
<path d="M0 0 C2.56459632 2.56459632 2.24762612 4.26694594 2.27789307 7.76379395 C2.2738446 8.55330444 2.26979614 9.34281494 2.265625 10.15625 C2.26753845 10.97315308 2.2694519 11.79005615 2.27142334 12.63171387 C2.27278654 14.36678372 2.26908069 16.10186371 2.26074219 17.83691406 C2.25015397 20.46183011 2.26057523 23.0860444 2.2734375 25.7109375 C2.28001276 34.05364335 2.08550011 41.87374096 0 50 C-0.25517311 51.79093722 -0.50635355 53.58245827 -0.75 55.375 C-2.0931637 62.91820736 -5.35028739 70.69844895 -11 76 C-11.45375 76.804375 -11.9075 77.60875 -12.375 78.4375 C-14.24063071 81.37945612 -16.20655643 82.9381726 -19 85 C-19.928125 85.7425 -20.85625 86.485 -21.8125 87.25 C-22.534375 87.8275 -23.25625 88.405 -24 89 C-24.66 88.67 -25.32 88.34 -26 88 C-25.45472656 87.51273437 -24.90945313 87.02546875 -24.34765625 86.5234375 C-10.56448179 73.56489741 -1.49100214 56.12290871 -0.68115234 37.00927734 C-0.64037175 35.28502087 -0.60891221 33.56052313 -0.5859375 31.8359375 C-0.56657135 30.91785309 -0.5472052 29.99976868 -0.5272522 29.05386353 C-0.46812855 26.16099944 -0.42134357 23.26809409 -0.375 20.375 C-0.33675817 18.39711938 -0.29770297 16.41925431 -0.2578125 14.44140625 C-0.16248356 9.62773252 -0.07820891 4.81398107 0 0 Z " fill="#C1F9F6" transform="translate(525,227)"/>
<path d="M0 0 C0 0.99 0 1.98 0 3 C-0.66 3 -1.32 3 -2 3 C-2.2475 3.598125 -2.495 4.19625 -2.75 4.8125 C-4.18072525 7.31626919 -5.5691582 8.48072388 -8 10 C-8.66 10 -9.32 10 -10 10 C-10 10.99 -10 11.98 -10 13 C-10.66 13 -11.32 13 -12 13 C-12 13.66 -12 14.32 -12 15 C-12.763125 15.70125 -13.52625 16.4025 -14.3125 17.125 C-17.60858189 20.65104109 -18.53280635 23.44397762 -20 28 C-20.66 28 -21.32 28 -22 28 C-22.33 28.66 -22.66 29.32 -23 30 C-23 29.34 -23 28.68 -23 28 C-23.66 28 -24.32 28 -25 28 C-26.37592873 35.03934964 -27.20793276 41.6414498 -26.875 48.8203125 C-27 51 -27 51 -29 53 C-29.33 51.35 -29.66 49.7 -30 48 C-31.10251165 51.30753495 -32.05066101 54.64566891 -33 58 C-33.33 58 -33.66 58 -34 58 C-35.16230631 41.43713507 -27.90529718 26.9905362 -17.4375 14.6484375 C-12.20318117 8.96114878 -6.74344533 3.82606827 0 0 Z " fill="#2D3485" transform="translate(35,173)"/>
<path d="M0 0 C6.6 0 13.2 0 20 0 C20 55.11 20 110.22 20 167 C19.67 167 19.34 167 19 167 C18.505 85.325 18.505 85.325 18 2 C8.09141031 1.55535135 8.09141031 1.55535135 3 3 C2.01 2.67 1.02 2.34 0 2 C0 1.34 0 0.68 0 0 Z " fill="#262E88" transform="translate(145,164)"/>
<path d="M0 0 C1.33740486 0.0087616 1.33740486 0.0087616 2.701828 0.0177002 C5.82226152 0.04268289 8.94225802 0.08239001 12.0625 0.125 C13.87193588 0.14856567 13.87193588 0.14856567 15.71792603 0.17260742 C24.56073206 0.29169398 33.40301084 0.4363249 42.24530029 0.58856201 C45.84645471 0.65017578 49.44764283 0.70975441 53.04882812 0.76953125 C60.05341863 0.88608843 67.05797085 1.0048078 74.0625 1.125 C74.0625 1.455 74.0625 1.785 74.0625 2.125 C72.91910156 2.17398438 71.77570313 2.22296875 70.59765625 2.2734375 C69.10674527 2.34845189 67.61586108 2.42400028 66.125 2.5 C64.99288086 2.54640625 64.99288086 2.54640625 63.83789062 2.59375 C61.90742605 2.6976315 59.98307919 2.90395614 58.0625 3.125 C57.7325 3.785 57.4025 4.445 57.0625 5.125 C56.0725 4.135 56.0725 4.135 55.0625 3.125 C52.09184491 3.46727572 52.09184491 3.46727572 49.0625 4.125 C46.0625 4.125 46.0625 4.125 44.0625 3.125 C43.7325 3.785 43.4025 4.445 43.0625 5.125 C42.4025 4.465 41.7425 3.805 41.0625 3.125 C38.49727611 2.8052759 38.49727611 2.8052759 35.625 2.875 C34.65691406 2.86984375 33.68882813 2.8646875 32.69140625 2.859375 C29.83103887 2.94113003 29.83103887 2.94113003 27.0625 5.125 C26.4025 4.465 25.7425 3.805 25.0625 3.125 C19.13299366 2.3853787 12.94815066 3.37761579 7.0625 4.125 C7.0625 3.465 7.0625 2.805 7.0625 2.125 C6.11375 2.29 5.165 2.455 4.1875 2.625 C1.16865155 3.06841235 -1.70141126 3.13474144 -4.75 3.0625 C-10.00128834 2.98990154 -14.84526193 3.9115305 -19.9375 5.125 C-20.2675 4.465 -20.5975 3.805 -20.9375 3.125 C-13.87971876 0.67011957 -7.40672381 -0.09688743 0 0 Z " fill="#2D348C" transform="translate(69.9375,162.875)"/>
<path d="M0 0 C0.66 0 1.32 0 2 0 C-0.96705646 10.77509977 -6.84207973 19.5218411 -14 28 C-14.49757813 28.59425781 -14.99515625 29.18851562 -15.5078125 29.80078125 C-25.40023603 40.61285219 -40.68806572 48.1943565 -55 51 C-57.33300933 51.03888349 -59.66709801 51.0448635 -62 51 C-62 50.67 -62 50.34 -62 50 C-61.17757813 49.82984375 -60.35515625 49.6596875 -59.5078125 49.484375 C-53.05581687 48.08371082 -47.06423648 46.44875605 -41.0234375 43.76953125 C-39 43 -39 43 -36 43 C-35.67 42.01 -35.34 41.02 -35 40 C-31.4375 38.8125 -31.4375 38.8125 -28 38 C-28 37.34 -28 36.68 -28 36 C-27.01 36 -26.02 36 -25 36 C-24.896875 35.360625 -24.79375 34.72125 -24.6875 34.0625 C-24.460625 33.381875 -24.23375 32.70125 -24 32 C-23.01 31.67 -22.02 31.34 -21 31 C-19.79117904 28.99983534 -19.79117904 28.99983534 -19 27 C-18.01 27 -17.02 27 -16 27 C-16 26.01 -16 25.02 -16 24 C-15.41089844 23.77183594 -14.82179688 23.54367187 -14.21484375 23.30859375 C-6.89466126 18.9836182 -3.16052196 7.52990715 0 0 Z " fill="#4FC4BE" transform="translate(520,281)"/>
<path d="M0 0 C0.66 0 1.32 0 2 0 C2 1.65 2 3.3 2 5 C2.66 5 3.32 5 4 5 C4 4.01 4 3.02 4 2 C4.99 2 5.98 2 7 2 C7.02578125 3.05058594 7.0515625 4.10117187 7.078125 5.18359375 C7.3685264 13.18153391 7.78906556 19.94913304 12 27 C12.99 27 13.98 27 15 27 C15.12375 28.36125 15.12375 28.36125 15.25 29.75 C16.11988475 33.51950058 17.15715479 34.48205139 20 37 C20.598125 37.825 21.19625 38.65 21.8125 39.5 C24.57640452 42.65874802 27.28757838 44.07239647 31 46 C31 46.66 31 47.32 31 48 C21.969198 46.36528529 14.92524221 36.04952059 10 29 C4.2601093 19.71279315 0.75167069 10.97439203 0 0 Z " fill="#272F8F" transform="translate(1,270)"/>
<path d="M0 0 C0.33 0 0.66 0 1 0 C1.22440104 16.53345668 1.42526965 33.06700776 1.59840012 49.60107327 C1.67933816 57.27874399 1.76787155 64.95618462 1.87451172 72.63354492 C1.96747831 79.32790623 2.04596368 86.02225695 2.10732102 92.71698529 C2.14028572 96.25934524 2.18032288 99.80129612 2.2377243 103.34335136 C2.30165155 107.30488206 2.33323622 111.26632448 2.36230469 115.22827148 C2.39790245 116.97507706 2.39790245 116.97507706 2.43421936 118.75717163 C2.45236791 125.53842725 1.78520776 131.21110146 -2 137 C-2.66 137.33 -3.32 137.66 -4 138 C-3.7884537 137.28374325 -3.57690741 136.5674865 -3.35895061 135.82952499 C-1.23575681 128.11828771 -0.5575449 121.04545179 -0.56762695 113.07128906 C-0.5574353 111.84058685 -0.54724365 110.60988464 -0.53674316 109.34188843 C-0.5119447 106.00786628 -0.49992835 102.67428274 -0.49388909 99.3402071 C-0.48442981 95.84081237 -0.45822115 92.3415413 -0.43388367 88.84222412 C-0.39042076 82.23402912 -0.36175034 75.6258584 -0.33856028 69.01756454 C-0.31139941 61.4865232 -0.26749523 53.95560754 -0.22227156 46.42465639 C-0.12971522 30.94983579 -0.05790262 15.47499145 0 0 Z " fill="#272E8A" transform="translate(351,339)"/>
<path d="M0 0 C0.33 0 0.66 0 1 0 C1.33 44.88 1.66 89.76 2 136 C1.01 136 0.02 136 -1 136 C-2.3500798 133.2998404 -1.61591673 131.92540771 -1 129 C-0.90345269 127.16891445 -0.85427928 125.33497505 -0.84178162 123.50138855 C-0.8319928 122.40908936 -0.82220398 121.31679016 -0.81211853 120.19139099 C-0.80636307 119.0031221 -0.8006076 117.81485321 -0.79467773 116.59057617 C-0.78477814 115.33163544 -0.77487854 114.0726947 -0.76467896 112.77560425 C-0.73770756 109.3318154 -0.71665612 105.88801295 -0.69667697 102.44417739 C-0.67476935 98.8420171 -0.64740408 95.23989835 -0.62062073 91.63777161 C-0.5707583 84.82038717 -0.52579561 78.0029796 -0.48259836 71.18555003 C-0.43317078 63.4225556 -0.37827317 55.65960285 -0.32291877 47.89664876 C-0.20919777 31.93113773 -0.10233732 15.96558831 0 0 Z " fill="#BFC4E0" transform="translate(354,333)"/>
<path d="M0 0 C-5.5452399 3.52110609 -10.25751737 3.37790853 -16.59521484 3.2487793 C-17.64947662 3.23946381 -18.7037384 3.23014832 -19.78994751 3.22055054 C-23.26394247 3.18626042 -26.73723256 3.13035098 -30.2109375 3.07421875 C-32.62373365 3.04617739 -35.03654586 3.01948787 -37.44937134 2.99409485 C-43.79203391 2.92371416 -50.13431194 2.83498317 -56.47668457 2.74243164 C-62.95177216 2.65119039 -69.42705517 2.57730154 -75.90234375 2.50195312 C-88.6018112 2.35162001 -101.30095602 2.18248991 -114 2 C-114 1.67 -114 1.34 -114 1 C-112.71040375 0.98969254 -111.4208075 0.97938507 -110.09213257 0.96876526 C-97.93841855 0.8710055 -85.78475543 0.76826891 -73.6311245 0.66066074 C-67.3828442 0.60549844 -61.13455916 0.55208913 -54.88623047 0.50268555 C-48.85617675 0.45494331 -42.82617896 0.40259694 -36.79619217 0.34705925 C-34.49572772 0.32668036 -32.19524796 0.30796 -29.89475632 0.29092598 C-26.67245707 0.26678305 -23.45026271 0.23674203 -20.22802734 0.20532227 C-19.27712219 0.1995668 -18.32621704 0.19381134 -17.34649658 0.18788147 C-0.0121762 -0.00421484 -0.0121762 -0.00421484 0 0 Z " fill="#C1FCF7" transform="translate(469,332)"/>
<path d="M0 0 C0.99 0 1.98 0 3 0 C6.60127317 17.20219806 6.20554672 34.56593975 5 52 C4.67 52 4.34 52 4 52 C3.98541748 50.89599854 3.97083496 49.79199707 3.95581055 48.65454102 C3.89743343 44.52239075 3.82020607 40.39076316 3.73754883 36.2590332 C3.70448362 34.47754457 3.67639558 32.69595582 3.65356445 30.91430664 C3.61967693 28.33957614 3.56734857 25.7657482 3.51171875 23.19140625 C3.50213387 22.01427818 3.50213387 22.01427818 3.49235535 20.81336975 C3.36164104 15.79385395 2.43711499 11.64337455 0.65657043 6.94468689 C-0.14507178 4.5703139 -0.2406677 2.4868996 0 0 Z " fill="#ECFFFF" transform="translate(523,215)"/>
<path d="M0 0 C0.99 0.33 1.98 0.66 3 1 C3 1.99 3 2.98 3 4 C3.66 4 4.32 4 5 4 C5.66 5.32 6.32 6.64 7 8 C7.99 8 8.98 8 10 8 C10.12375 9.36125 10.12375 9.36125 10.25 10.75 C11.11988475 14.51950058 12.15715479 15.48205139 15 18 C15.598125 18.825 16.19625 19.65 16.8125 20.5 C19.57640452 23.65874802 22.28757838 25.07239647 26 27 C26 27.66 26 28.32 26 29 C16.92288555 27.35690202 10.03093218 17.02035023 5 10 C3.13290591 6.74344055 1.48734255 3.44555235 0 0 Z " fill="#31367E" transform="translate(6,289)"/>
<path d="M0 0 C0.33 0 0.66 0 1 0 C1.33 12.54 1.66 25.08 2 38 C1.01 38 0.02 38 -1 38 C-2.35632229 35.28735542 -1.60940935 33.96119287 -1 31 C-0.85436372 28.57890502 -0.75343432 26.15493428 -0.68359375 23.73046875 C-0.66281265 23.04946609 -0.64203156 22.36846344 -0.62062073 21.66682434 C-0.55562122 19.50714492 -0.49647288 17.34735154 -0.4375 15.1875 C-0.3942675 13.71678544 -0.35065175 12.24608209 -0.30664062 10.77539062 C-0.19999141 7.18371283 -0.09858651 3.59190918 0 0 Z " fill="#C4C9E6" transform="translate(354,431)"/>
<path d="M0 0 C0.8968714 2.6906142 1.27859126 4.88897096 1.5625 7.6875 C1.64628906 8.49574219 1.73007813 9.30398438 1.81640625 10.13671875 C1.87699219 10.75160156 1.93757812 11.36648438 2 12 C3.65 11.67 5.3 11.34 7 11 C7 11.99 7 12.98 7 14 C4.70703125 14.265625 4.70703125 14.265625 2 14 C0.19921875 12.171875 0.19921875 12.171875 -1.3125 9.75 C-1.82425781 8.96109375 -2.33601562 8.1721875 -2.86328125 7.359375 C-4 5 -4 5 -4 1 C-2.68 0.67 -1.36 0.34 0 0 Z " fill="#272D85" transform="translate(173,466)"/>
<path d="M0 0 C0.66 0.33 1.32 0.66 2 1 C1 4 1 4 -1.4375 5.375 C-4.44734958 7.2836851 -5.00395199 8.64965669 -6 12 C-6.763125 11.979375 -7.52625 11.95875 -8.3125 11.9375 C-11.10185786 11.87057159 -11.10185786 11.87057159 -14 13 C-14 12.34 -14 11.68 -14 11 C-12.55865251 10.06144815 -11.11479775 9.1264361 -9.65625 8.21484375 C-7.87608259 6.90910775 -6.67434838 5.54387431 -5.3125 3.8125 C-3 1 -3 1 0 0 Z " fill="#232C93" transform="translate(39,172)"/>
<path d="M0 0 C5.45666348 2.13058444 7.5141205 6.96667122 10 12 C10.875 15.625 10.875 15.625 11 18 C10.34 18.33 9.68 18.66 9 19 C8.525625 18.175 8.05125 17.35 7.5625 16.5 C7.046875 15.675 6.53125 14.85 6 14 C5.67 14 5.34 14 5 14 C4.9175 12.7625 4.835 11.525 4.75 10.25 C4.27672628 6.25189664 3.12430902 4.62038821 0 2 C0 1.34 0 0.68 0 0 Z " fill="#394087" transform="translate(342,0)"/>
<path d="M0 0 C6.95381997 0.49670143 13.20252704 1.85284291 18 7.25 C18.33 7.8275 18.66 8.405 19 9 C18.67 9.66 18.34 10.32 18 11 C17.11957031 10.44570312 16.23914063 9.89140625 15.33203125 9.3203125 C14.15898514 8.58833173 12.9858007 7.85657261 11.8125 7.125 C10.9452832 6.57779297 10.9452832 6.57779297 10.06054688 6.01953125 C6.79721967 3.9914748 3.61940638 2.29507949 0 1 C0 0.67 0 0.34 0 0 Z " fill="#C9FBF9" transform="translate(478,167)"/>
<path d="M0 0 C5.09746294 -0.18927839 9.29488015 0.3879313 14.1875 1.8125 C15.37730469 2.14894531 16.56710937 2.48539063 17.79296875 2.83203125 C20.72925577 3.90139766 22.65808799 4.97189257 25 7 C18.5213114 6.76181292 13.46039699 6.14705066 7.79296875 2.921875 C5.27916362 1.62937389 2.79002046 1.27900205 0 1 C0 0.67 0 0.34 0 0 Z " fill="#E3FDFD" transform="translate(461,161)"/>
<path d="M0 0 C0.99 0 1.98 0 3 0 C3.33 0.99 3.66 1.98 4 3 C3.21625 3.20625 2.4325 3.4125 1.625 3.625 C-1.30916286 4.80676612 -1.30916286 4.80676612 -2.3125 8.125 C-2.539375 9.07375 -2.76625 10.0225 -3 11 C-3.66 11 -4.32 11 -5 11 C-5.33 12.32 -5.66 13.64 -6 15 C-6.875 12.5 -6.875 12.5 -7 9 C-5.09030752 5.68221148 -2.70778054 2.70778054 0 0 Z " fill="#353D85" transform="translate(177,0)"/>
<path d="M0 0 C0.66 0.33 1.32 0.66 2 1 C-1.45776908 5.58583559 -4.05721663 8.96647246 -10 10 C-11.34364908 9.71104321 -12.68066964 9.38504062 -14 9 C-13.07316406 8.43410156 -12.14632813 7.86820312 -11.19140625 7.28515625 C-9.98172588 6.54434424 -8.77209291 5.80345482 -7.5625 5.0625 C-6.95083984 4.68931641 -6.33917969 4.31613281 -5.70898438 3.93164062 C-2.68972694 2.18538519 -2.68972694 2.18538519 0 0 Z " fill="#CAFAF8" transform="translate(497,316)"/>
<path d="M0 0 C7.52592433 0.6377902 14.67098882 2.19889833 22 4 C22 4.33 22 4.66 22 5 C13.99819339 5.54249536 7.53404602 3.60838688 0 1 C0 0.67 0 0.34 0 0 Z " fill="#464A89" transform="translate(46,327)"/>
<path d="M0 0 C0.89109922 3.07251011 1.16339724 5.86647393 1.1875 9.0625 C1.20167969 9.91972656 1.21585937 10.77695313 1.23046875 11.66015625 C1 14 1 14 -1 17 C-1.68177416 18.32567199 -2.35191436 19.65753688 -3 21 C-3.37369729 13.52605426 -2.04061541 7.17859349 0 0 Z " fill="#393F87" transform="translate(4,210)"/>
<path d="M0 0 C0.99 0 1.98 0 3 0 C3.93619813 3.15506142 4.1057123 5.96586502 4.0625 9.25 C4.05347656 10.14203125 4.04445313 11.0340625 4.03515625 11.953125 C4.02355469 12.62859375 4.01195312 13.3040625 4 14 C1.3184721 10.92307254 0.57912193 8.80265337 0.3125 4.75 C0.24675781 3.85796875 0.18101562 2.9659375 0.11328125 2.046875 C0.07589844 1.37140625 0.03851562 0.6959375 0 0 Z " fill="#D7FDFD" transform="translate(523,215)"/>
<path d="M0 0 C-4.70869426 2.79441201 -8.50675354 3.39036978 -13.875 3.1875 C-14.56335938 3.17396484 -15.25171875 3.16042969 -15.9609375 3.14648438 C-17.64097001 3.1114837 -19.3205935 3.05768954 -21 3 C-21 2.67 -21 2.34 -21 2 C-18.25162151 1.46892686 -15.50187625 0.94984119 -12.75 0.4375 C-11.97269531 0.28603516 -11.19539063 0.13457031 -10.39453125 -0.02148438 C-9.64042969 -0.16005859 -8.88632812 -0.29863281 -8.109375 -0.44140625 C-7.07248535 -0.63778687 -7.07248535 -0.63778687 -6.01464844 -0.83813477 C-3.78712058 -1.01710362 -2.12493038 -0.65206197 0 0 Z " fill="#D3FBFA" transform="translate(469,332)"/>
<path d="M0 0 C0.33 0 0.66 0 1 0 C1.25477428 3.4361064 1.47439003 6.87357801 1.6875 10.3125 C1.76033203 11.28896484 1.83316406 12.26542969 1.90820312 13.27148438 C1.96298828 14.20927734 2.01777344 15.14707031 2.07421875 16.11328125 C2.13182373 16.97735596 2.18942871 17.84143066 2.2487793 18.73168945 C2 21 2 21 -1 24 C-0.67 16.08 -0.34 8.16 0 0 Z " fill="#DEDEDD" transform="translate(1335,280)"/>
<path d="M0 0 C0.66 0 1.32 0 2 0 C1.66277668 3.03500987 1.19548997 4.74658707 -0.6875 7.1875 C-3.34763042 9.27246708 -5.75764954 10.1157226 -9 11 C-8.67 10.01 -8.34 9.02 -8 8 C-7.01 7.67 -6.02 7.34 -5 7 C-3.79117904 4.99983534 -3.79117904 4.99983534 -3 3 C-2.01 3 -1.02 3 0 3 C0 2.01 0 1.02 0 0 Z " fill="#3AC6BF" transform="translate(504,305)"/>
<path d="M0 0 C0.66 0 1.32 0 2 0 C3.32421875 1.390625 3.32421875 1.390625 4.6875 3.25 C5.14511719 3.85328125 5.60273438 4.4565625 6.07421875 5.078125 C7 7 7 7 6.64453125 9.234375 C6.43183594 9.81703125 6.21914063 10.3996875 6 11 C5.01 11 4.02 11 3 11 C2.731875 9.88625 2.46375 8.7725 2.1875 7.625 C1.34190981 3.78159049 1.34190981 3.78159049 -2 2 C-1.34 1.34 -0.68 0.68 0 0 Z " fill="#272C8F" transform="translate(340,0)"/>
<path d="M0 0 C0.33 0 0.66 0 1 0 C1.24794402 6.5705166 0.32388229 12.56971459 -1 19 C-2.32 19.33 -3.64 19.66 -5 20 C-4.80664062 19.39414062 -4.61328125 18.78828125 -4.4140625 18.1640625 C-2.54867496 12.16157783 -1.11840293 6.1841103 0 0 Z " fill="#BDF6F4" transform="translate(524,269)"/>
<path d="M0 0 C0.66 0 1.32 0 2 0 C3.02766017 3.08298051 3.16598738 5.33130426 3.1875 8.5625 C3.20167969 9.53316406 3.21585938 10.50382813 3.23046875 11.50390625 C3 14 3 14 1 16 C1 12.37 1 8.74 1 5 C0.34 4.67 -0.32 4.34 -1 4 C-0.67 2.68 -0.34 1.36 0 0 Z " fill="#1E278C" transform="translate(5,210)"/>
<path d="M0 0 C0.33 0 0.66 0 1 0 C1 1.65 1 3.3 1 5 C0.34 5 -0.32 5 -1 5 C-1.66 8.3 -2.32 11.6 -3 15 C-3.99 14.67 -4.98 14.34 -6 14 C-5.41892368 10.2397015 -4.34800504 7.46964968 -2.4375 4.1875 C-1.98246094 3.39730469 -1.52742187 2.60710937 -1.05859375 1.79296875 C-0.53458984 0.90544922 -0.53458984 0.90544922 0 0 Z " fill="#3D4385" transform="translate(11,196)"/>
<path d="M0 0 C0.66 0 1.32 0 2 0 C1.3920502 4.13405862 0.09037553 7.38204235 -2 11 C-2.99 11.66 -3.98 12.32 -5 13 C-4.54803755 11.39402675 -4.08817673 9.79027492 -3.625 8.1875 C-3.36976563 7.29417969 -3.11453125 6.40085937 -2.8515625 5.48046875 C-2 3 -2 3 0 0 Z " fill="#E0FDFD" transform="translate(519,289)"/>
<path d="M0 0 C5.94 0 11.88 0 18 0 C13.7174008 2.1412996 11.66874348 2.08337042 7 2 C5.88625 2.2784375 5.88625 2.2784375 4.75 2.5625 C3 3 3 3 0 2 C0 1.34 0 0.68 0 0 Z " fill="#2C3191" transform="translate(145,164)"/>
<path d="M0 0 C-2.28431738 2.35800504 -4.0081024 3.88720897 -7.3359375 4.265625 C-9.56920205 4.251535 -11.77382441 4.17460201 -14 4 C-11.37350692 2.24900461 -9.38191413 1.30690675 -6.4375 0.3125 C-5.65246094 0.04050781 -4.86742187 -0.23148437 -4.05859375 -0.51171875 C-2 -1 -2 -1 0 0 Z " fill="#C2F6F5" transform="translate(483,327)"/>
<path d="M0 0 C0 0.66 0 1.32 0 2 C-1.06541016 2.18175781 -1.06541016 2.18175781 -2.15234375 2.3671875 C-3.07144531 2.53476563 -3.99054687 2.70234375 -4.9375 2.875 C-5.85402344 3.03742188 -6.77054688 3.19984375 -7.71484375 3.3671875 C-8.46894531 3.57601562 -9.22304688 3.78484375 -10 4 C-10.33 4.66 -10.66 5.32 -11 6 C-11.66 5.34 -12.32 4.68 -13 4 C-11.40233897 3.13372601 -9.79660056 2.28233535 -8.1875 1.4375 C-7.29417969 0.96183594 -6.40085937 0.48617187 -5.48046875 -0.00390625 C-3 -1 -3 -1 0 0 Z " fill="#3E4489" transform="translate(49,168)"/>
<path d="M0 0 C0.33 0 0.66 0 1 0 C0.56826496 6.15222436 -0.65405342 9.81917949 -4 15 C-4.33 14.34 -4.66 13.68 -5 13 C-4.35330586 11.65686601 -3.68096422 10.32608822 -3 9 C-2.31744011 6.67126625 -1.64949225 4.33817209 -1 2 C-0.67 1.34 -0.34 0.68 0 0 Z " fill="#292F78" transform="translate(352,462)"/>
<path d="M0 0 C0.33 0 0.66 0 1 0 C1.33278764 6.81598387 1.24201565 11.92122066 -2 18 C-2.33 18 -2.66 18 -3 18 C-2.32418477 11.91766294 -1.26361972 5.98685848 0 0 Z " fill="#E7FFFE" transform="translate(526,267)"/>
<path d="M0 0 C2.64 1.32 5.28 2.64 8 4 C7.67 4.99 7.34 5.98 7 7 C4.03 5.35 1.06 3.7 -2 2 C-1.34 1.34 -0.68 0.68 0 0 Z " fill="#3D418B" transform="translate(32,317)"/>
<path d="M0 0 C0.66 0.33 1.32 0.66 2 1 C2 3.97 2 6.94 2 10 C1.01 10 0.02 10 -1 10 C-2.27351308 7.45297384 -1.80191925 6.5717055 -1.0625 3.875 C-0.86785156 3.15054687 -0.67320312 2.42609375 -0.47265625 1.6796875 C-0.31667969 1.12539063 -0.16070312 0.57109375 0 0 Z " fill="#E0E3F3" transform="translate(354,459)"/>
<path d="M0 0 C1.65 0 3.3 0 5 0 C5.625 2.375 5.625 2.375 6 5 C5.34 5.66 4.68 6.32 4 7 C0 2.25 0 2.25 0 0 Z " fill="#1F2998" transform="translate(20,305)"/>
<path d="M0 0 C0.66 0 1.32 0 2 0 C2 1.65 2 3.3 2 5 C2.66 5 3.32 5 4 5 C4.125 7.875 4.125 7.875 4 11 C3.34 11.66 2.68 12.32 2 13 C1.34 8.71 0.68 4.42 0 0 Z " fill="#3D438A" transform="translate(1,270)"/>
<path d="M0 0 C1.32 0 2.64 0 4 0 C4 0.99 4 1.98 4 3 C4.99 3 5.98 3 7 3 C7.66 5.31 8.32 7.62 9 10 C5.73991357 6.83047153 2.77762123 3.60062011 0 0 Z " fill="#CAFCFA" transform="translate(503,183)"/>
<path d="M0 0 C1.32 0.66 2.64 1.32 4 2 C3.34 2 2.68 2 2 2 C2 2.66 2 3.32 2 4 C0.70766393 5.37310707 -0.62437146 6.71034824 -2 8 C-2.66 7.67 -3.32 7.34 -4 7 C-3.43628586 3.73045798 -2.50037734 2.17424117 0 0 Z " fill="#393F92" transform="translate(21,184)"/>
<path d="M0 0 C0.33 0.66 0.66 1.32 1 2 C0.22265625 3.9453125 0.22265625 3.9453125 -0.9375 6.125 C-1.31777344 6.84945313 -1.69804688 7.57390625 -2.08984375 8.3203125 C-2.54037109 9.15175781 -2.54037109 9.15175781 -3 10 C-3.66 10 -4.32 10 -5 10 C-5 10.66 -5 11.32 -5 12 C-5.66 12 -6.32 12 -7 12 C-5.44298069 7.32894208 -2.91552627 3.91294315 0 0 Z " fill="#BCF7F4" transform="translate(516,294)"/>
<path d="M0 0 C1.32 0.33 2.64 0.66 4 1 C-1.41538462 5.06153846 -1.41538462 5.06153846 -4.375 4.75 C-4.91125 4.5025 -5.4475 4.255 -6 4 C-4.35 3.67 -2.7 3.34 -1 3 C-0.67 2.01 -0.34 1.02 0 0 Z " fill="#45C2BB" transform="translate(485,321)"/>
<path d="M0 0 C0.66 0.33 1.32 0.66 2 1 C0.02 2.98 -1.96 4.96 -4 7 C-4.99 6.67 -5.98 6.34 -7 6 C-4.69 4.02 -2.38 2.04 0 0 Z " fill="#ECFFFE" transform="translate(504,312)"/>
<path d="M0 0 C0.66 0 1.32 0 2 0 C2.12375 0.94875 2.2475 1.8975 2.375 2.875 C2.71687177 6.08667191 2.71687177 6.08667191 5 8 C3.125 7.875 3.125 7.875 1 7 C-0.25 3.9375 -0.25 3.9375 -1 1 C-0.67 0.67 -0.34 0.34 0 0 Z " fill="#252A84" transform="translate(14,297)"/>
<path d="M0 0 C5.4611399 0.35233161 5.4611399 0.35233161 8 1 C9.5 3.0625 9.5 3.0625 10 5 C5 3 5 3 0 1 C0 0.67 0 0.34 0 0 Z " fill="#B5F6F3" transform="translate(478,167)"/>
<path d="M0 0 C3.80666984 1.44390925 5.26602582 3.34952803 7 7 C6.67 7.66 6.34 8.32 6 9 C4.99406757 7.8803014 3.9954151 6.7540588 3 5.625 C2.443125 4.99851562 1.88625 4.37203125 1.3125 3.7265625 C0 2 0 2 0 0 Z " fill="#333979" transform="translate(342,0)"/>
<path d="M0 0 C0.99 0 1.98 0 3 0 C3.33 0.99 3.66 1.98 4 3 C2.02 3.66 0.04 4.32 -2 5 C-1.125 1.125 -1.125 1.125 0 0 Z " fill="#232E86" transform="translate(177,0)"/>
</svg>
